<?xml version="1.0" encoding="UTF-8"?>
<svg width="175px" height="95px" viewBox="0 0 175 95" version="1.1" xmlns="http://www.w3.org/2000/svg" xmlns:xlink="http://www.w3.org/1999/xlink">
    <!-- Generator: Sketch 53.2 (72643) - https://sketchapp.com -->
    <title>logo/cogedim</title>
    <desc>Created with Sketch.</desc>
    <g id="logo/cogedim" stroke="none" stroke-width="1" fill="none" fill-rule="evenodd">
        <g id="cogedim" transform="translate(48.000000, 1.000000)" fill="#929DC5" fill-rule="nonzero">
            <polygon id="Shape" points="79.5680751 93.6247505 79.5680751 93.8874251 0.0187793427 93.8874251 0.0187793427 0.0750499002 79.8309859 0.0750499002 79.8309859 93.8874251 79.5680751 93.8874251 79.5680751 93.6247505 79.286385 93.6247505 79.286385 0.619161677 0.563380282 0.619161677 0.563380282 93.3433134 79.5680751 93.3433134 79.5680751 93.6247505 79.286385 93.6247505"></polygon>
            <path d="M23.342723,58.8954092 L21.5211268,58.8954092 L21.5211268,70.0027944 L26.5539906,70.0027944 L26.5539906,68.2766467 L23.342723,68.2766467 L23.342723,58.8954092 Z M33.314554,58.8954092 L26.4600939,58.8954092 L26.4600939,60.6215569 L28.9765258,60.6215569 L28.9765258,70.0215569 L30.7981221,70.0215569 L30.7981221,60.6027944 L33.314554,60.6027944 L33.314554,58.8954092 Z M47.6431925,65.3121756 C49.0704225,64.9556886 50.028169,63.7173653 50.0093897,62.1788423 C50.0093897,61.1281437 49.4835681,60.0962076 48.657277,59.5520958 C47.943662,59.0830339 47.1361502,58.8954092 45.7276995,58.8954092 L43.7183099,58.8954092 L43.7183099,70.0027944 L45.5399061,70.0027944 L45.5399061,65.5185629 L45.7089202,65.5185629 L48.8262911,70.0027944 L51.0422535,70.0027944 L50.9483568,69.8714571 L47.6431925,65.3121756 Z M45.971831,63.90499 L45.5211268,63.90499 L45.5211268,60.6027944 L46.028169,60.6027944 C47.5117371,60.6215569 48.2253521,61.1469062 48.2253521,62.1976048 C48.2441315,63.3233533 47.4929577,63.90499 45.971831,63.90499 Z M51.9061033,70.0027944 L58.1032864,70.0027944 L58.1032864,68.2766467 L53.7276995,68.2766467 L53.7276995,64.7868263 L57.971831,64.7868263 L57.971831,63.0606786 L53.7276995,63.0606786 L53.7276995,60.6027944 L58.1032864,60.6027944 L58.1032864,58.8766467 L51.9061033,58.8766467 L51.9061033,70.0027944 Z M64.9014085,58.8954092 L64.1690141,58.8954092 L64.1502347,58.9329341 L59.0046948,70.0027944 L60.9577465,70.0027944 L62.1784038,67.338523 L66.7605634,67.338523 L67.9061033,70.0027944 L69.8967136,70.0027944 L64.9014085,58.8954092 Z M62.9483568,65.6311377 L64.5070423,62.1976048 L66.0093897,65.6311377 L62.9483568,65.6311377 Z M37.5399061,58.8954092 L37.5211268,58.9329341 L32.3568075,70.0027944 L34.3098592,70.0027944 L35.5492958,67.338523 L40.1314554,67.338523 L41.2769953,70.0027944 L43.2676056,70.0027944 L38.2910798,58.8954092 L37.5399061,58.8954092 Z M36.3192488,65.6311377 L37.8967136,62.1976048 L39.399061,65.6311377 L36.3192488,65.6311377 Z" id="Shape"></path>
            <path d="M15.8873239,58.8954092 L15.1549296,58.8954092 L15.1361502,58.9329341 L9.99061033,70.0027944 L11.943662,70.0027944 L13.1830986,67.338523 L17.7652582,67.338523 L18.9107981,70.0027944 L20.9014085,70.0027944 L15.8873239,58.8954092 Z M17.0140845,65.6311377 L13.9342723,65.6311377 L15.4929577,62.1976048 L17.0140845,65.6311377 Z" id="Shape"></path>
            <g id="Group" transform="translate(6.197183, 9.944112)">
                <path d="M49.3333333,42.5532934 C49.5586854,42.9660679 49.9530516,43.0598802 50.1971831,43.0786427 L57.9906103,43.0786427 L39.9061033,4.24031936 C38.1032864,0.18762475 33.3521127,0.0750499002 32.9577465,0.0750499002 L29.5586854,0.0750499002 L49.3333333,42.5532934 Z" id="Shape"></path>
                <path d="M30.0657277,16.9988024 L25.8591549,7.9740519 L9.50234742,43.0786427 L17.2957746,43.0786427 C17.5399061,43.0598802 17.9342723,42.9660679 18.1596244,42.5532934 L30.0657277,16.9988024 Z" id="Shape"></path>
                <path d="M5.87793427,74.3369261 C2.62910798,74.3369261 0.112676056,71.803992 0.0938967136,68.5393214 C0.0938967136,65.4247505 2.74178404,62.798004 5.87793427,62.798004 C7.04225352,62.798004 7.83098592,63.0231537 8.86384977,63.6235529 L8.90140845,63.6423154 L8.90140845,65.6499002 L8.90140845,65.8187625 L8.76995305,65.7061876 C7.7370892,64.8618762 6.92957746,64.5429142 5.84037559,64.5241517 C3.64319249,64.5241517 1.91549296,66.3253493 1.91549296,68.5956088 C1.91549296,70.8846307 3.64319249,72.6107784 5.91549296,72.6107784 C6.91079812,72.6107784 7.7370892,72.2542914 8.76995305,71.3912176 L8.90140845,71.2786427 L8.90140845,73.4738523 L8.86384977,73.4926148 C7.8685446,74.0742515 6.91079812,74.3369261 5.87793427,74.3369261 Z" id="Shape"></path>
                <path d="M9.84037559,68.6143713 C9.84037559,65.405988 12.4507042,62.8167665 15.6619718,62.798004 C18.8544601,62.798004 21.4460094,65.3872255 21.4460094,68.5768463 C21.4460094,71.7477046 18.8544601,74.3369261 15.6619718,74.3369261 C12.4131455,74.3369261 9.84037559,71.8227545 9.84037559,68.6143713 M15.6619718,72.6295409 C17.8591549,72.6295409 19.6431925,70.8283433 19.6431925,68.6143713 C19.6431925,66.2878244 17.915493,64.5429142 15.6619718,64.5429142 C13.4084507,64.5429142 11.6619718,66.3065868 11.6619718,68.6143713 C11.6619718,70.8471058 13.42723,72.6295409 15.6619718,72.6295409" id="Shape"></path>
                <path d="M33.0704225,68.2766467 L33.1455399,68.2766467 L33.1455399,68.3516966 L33.1455399,68.8582834 C33.1455399,70.302994 32.8450704,71.2974052 32.1690141,72.2355289 C31.1924883,73.5489022 29.6150235,74.3369261 27.943662,74.3369261 C24.8262911,74.3369261 22.2723005,71.7477046 22.2723005,68.5956088 C22.2723005,65.3497006 24.8450704,62.8167665 28.1126761,62.798004 C29.8779343,62.798004 31.2488263,63.4922156 32.6197183,65.0682635 L32.6760563,65.1245509 L31.3802817,66.3628743 L31.3239437,66.3065868 C30.3849765,65.049501 29.4084507,64.5429142 28.0751174,64.5241517 C25.8403756,64.5241517 24.0938967,66.3065868 24.0938967,68.5956088 C24.0938967,70.7908184 25.8591549,72.6107784 27.9812207,72.6295409 C29.5586854,72.6295409 30.9671362,71.447505 31.1549296,70.0027944 L28.4319249,70.0027944 L28.4319249,68.2766467 L33.0704225,68.2766467 Z" id="Shape"></path>
            </g>
            <polygon id="Shape" points="40.5446009 84.0746507 40.5446009 72.9672655 46.741784 72.9672655 46.741784 74.6934132 42.3661972 74.6934132 42.3661972 77.1512974 46.6103286 77.1512974 46.6103286 78.8586826 42.3474178 78.8586826 42.3474178 82.348503 46.741784 82.348503 46.741784 84.0746507"></polygon>
            <path d="M50.5539906,84.0746507 L48.2065728,84.0746507 L48.2065728,73.0423154 L48.2065728,72.9672655 L50.5915493,72.9672655 C52.4882629,72.9672655 53.6150235,73.2674651 54.7042254,74.055489 C56.1126761,75.0686627 56.8450704,76.6634731 56.8450704,78.558483 C56.8450704,80.4159681 56.056338,81.9732535 54.6103286,83.0239521 C53.5023474,83.8307385 52.5258216,84.0934132 50.5915493,84.0934132 L50.5539906,84.0934132 L50.5539906,84.0746507 Z M50.685446,82.348503 C52.0187793,82.348503 52.8075117,82.1233533 53.5586854,81.5792415 C54.4788732,80.8850299 55.0234742,79.7780439 55.0234742,78.5021956 C55.0234742,77.2451098 54.4788732,76.1005988 53.5586854,75.4251497 C52.8450704,74.8998004 52,74.6746507 50.685446,74.6746507 L50.028169,74.6746507 L50.028169,82.348503 L50.685446,82.348503 Z" id="Shape"></path>
            <polygon id="Shape" points="58.2159624 84.0746507 58.2159624 72.9672655 60.0375587 72.9672655 60.0375587 83.9996008 60.0375587 84.0746507"></polygon>
            <polygon id="Shape" points="67.7558685 84.0746507 67.2488263 84.0746507 64.3943662 77.6578842 63.2488263 84.0746507 61.3896714 84.0746507 63.5492958 72.9672655 63.6244131 72.9672655 64.1877934 72.9672655 67.5492958 80.5285429 71.0046948 72.9672655 71.0610329 72.9672655 71.6431925 72.9672655 73.5962441 84.0746507 71.7370892 84.0746507 70.7230047 77.6578842 67.8122066 84.0746507"></polygon>
        </g>
    </g>
</svg>