<?xml version="1.0" encoding="UTF-8"?>
<svg width="175px" height="95px" viewBox="0 0 175 95" version="1.1" xmlns="http://www.w3.org/2000/svg" xmlns:xlink="http://www.w3.org/1999/xlink">
    <!-- Generator: Sketch 53.2 (72643) - https://sketchapp.com -->
    <title>logo/franceinfo</title>
    <desc>Created with Sketch.</desc>
    <g id="logo/franceinfo" stroke="none" stroke-width="1" fill="none" fill-rule="evenodd">
        <g id="franceinfo" transform="translate(24.000000, 38.000000)">
            <ellipse id="Oval" fill="#929DC5" fill-rule="nonzero" cx="125.56825" cy="8.85179487" rx="2.24413307" ry="2.29717949"></ellipse>
            <ellipse id="Oval" fill="#929DC5" fill-rule="nonzero" cx="125.56825" cy="17.6215385" rx="2.24413307" ry="2.29717949"></ellipse>
            <g id="Group">
                <path d="M29.9249472,13.2687179 C29.9249472,12.7387179 29.9312094,12.2087179 29.9206888,11.6792308 C29.917683,11.5294872 29.9096673,11.3466667 29.8287593,11.2366667 C28.6800157,9.6774359 26.1974168,9.09794872 24.6614168,10.5579487 C23.2281174,11.9205128 23.1542231,14.3712821 24.4993503,15.7758974 C25.8096595,17.1438462 28.1239295,17.0846154 29.5176517,15.6558974 C29.8017065,15.3646154 29.9670294,15.0561538 29.9329628,14.6238462 C29.8976438,14.1748718 29.9249472,13.7205128 29.9249472,13.2687179 Z" id="Shape"></path>
                <path d="M69.248,9.33846154 C67.8602896,9.32794872 66.5913112,10.3748718 66.5519843,11.5748718 C68.2462935,11.5748718 69.9401018,11.5748718 71.634411,11.5748718 C71.6096125,10.3789744 70.494184,9.34794872 69.248,9.33846154 Z" id="Shape"></path>
                <path d="M113.976861,9.72282051 C112.067131,9.72076923 110.624063,11.2458974 110.626568,13.2638462 C110.629072,15.2669231 112.052853,16.7607692 113.959577,16.7605128 C115.862795,16.7605128 117.28407,15.264359 117.288329,13.2574359 C117.292086,11.2630769 115.851272,9.72487179 113.976861,9.72282051 Z" id="Shape"></path>
                <path d="M79.4258787,0.203846154 C79.2016908,0.121794872 78.9684853,0.0671794872 78.7392877,0 C78.6781683,0 78.6175499,0 78.5564305,0 C78.4427084,0.0333333333 78.3307397,0.0779487179 78.2147632,0.0982051282 C77.1339022,0.286666667 76.3954599,1.22282051 76.4440548,2.34897436 C76.4934012,3.50102564 77.2954677,4.31794872 78.498818,4.4425641 C79.5375969,4.54974359 80.5367984,3.78564103 80.7730098,2.70358974 C81.0052133,1.63794872 80.4350998,0.573589744 79.4258787,0.203846154 Z" id="Shape" fill="#929DC5" fill-rule="nonzero"></path>
                <path d="M30.0486888,7.84102564 C29.1111076,7.14769231 28.1890568,6.73948718 27.159546,6.6074359 C26.112,6.47307692 25.0982701,6.59589744 24.1166027,6.99564103 C23.1477104,7.39 22.3413855,8.01230769 21.6851037,8.83538462 C19.747319,11.265641 19.6829432,14.9258974 21.5255421,17.4279487 C22.3822153,18.5912821 23.5124227,19.3494872 24.879092,19.7094872 C26.7104188,20.1917949 28.4312798,19.9392308 30.0081096,18.6815385 C30.0299022,19.0520513 30.0466849,19.3364103 30.0639687,19.6271795 C31.1323053,19.6271795 32.1590607,19.6271795 33.2068571,19.6271795 C33.2068571,15.3546154 33.2068571,11.1146154 33.2068571,6.86076923 C32.1417769,6.86076923 31.1140196,6.86076923 30.0489393,6.86076923 C30.0486888,7.16128205 30.0486888,7.43641026 30.0486888,7.84102564 Z M29.5174012,15.6558974 C28.1239295,17.084359 25.8096595,17.1438462 24.4990998,15.7758974 C23.1539726,14.3712821 23.2278669,11.9205128 24.6611663,10.5579487 C26.1971663,9.09794872 28.6797652,9.6774359 29.8285088,11.2366667 C29.9094168,11.3464103 29.9174325,11.5294872 29.9204384,11.6792308 C29.9309589,12.2087179 29.9246967,12.7387179 29.9246967,13.2687179 C29.9246967,13.7205128 29.8973933,14.1748718 29.9327123,14.6238462 C29.9667789,15.0561538 29.801456,15.3646154 29.5174012,15.6558974 Z" id="Shape" fill="#929DC5" fill-rule="nonzero"></path>
                <path d="M113.971851,6.55461538 C110.214262,6.54384615 107.246716,9.51487179 107.266755,13.2679487 C107.287295,17.0230769 110.182701,19.9182051 113.918497,19.9189744 C117.725432,19.9202564 120.647389,17.025641 120.648391,13.2525641 C120.649393,9.50794872 117.716164,6.56538462 113.971851,6.55461538 Z M113.959577,16.7605128 C112.053104,16.7607692 110.629072,15.2669231 110.626568,13.2638462 C110.624063,11.2458974 112.067131,9.72076923 113.976861,9.72282051 C115.851022,9.72487179 117.292086,11.2630769 117.288329,13.2574359 C117.28407,15.264359 115.862544,16.7605128 113.959577,16.7605128 Z" id="Shape" fill="#929DC5" fill-rule="nonzero"></path>
                <path d="M66.6136047,7.13307692 C64.4568924,8.18051282 63.3910607,10.0638462 63.139319,12.425641 C62.9211429,14.474359 63.3412133,16.3841026 64.7865362,17.9123077 C66.5514834,19.7782051 68.7532838,20.224359 71.168501,19.7620513 C72.5967906,19.4887179 73.8214325,18.7994872 74.7277025,17.7320513 C74.0836947,17.0664103 73.4594755,16.4212821 72.8350059,15.7761538 C71.4665832,17.0510256 69.9055342,17.6394872 68.0762114,16.7489744 C67.0356791,16.2425641 66.3255421,15.0623077 66.4187241,14.1092308 C69.2745519,14.1092308 72.133135,14.1092308 75.0520861,14.1092308 C75.077636,13.744359 75.1279843,13.4351282 75.1137065,13.1289744 C75.090411,12.6328205 75.0606027,12.1317949 74.9714286,11.6446154 C74.2307319,7.59461538 70.1893386,5.39666667 66.6136047,7.13307692 Z M66.5519843,11.5751282 C66.5910607,10.3751282 67.8602896,9.32820513 69.248,9.33871795 C70.4944344,9.34794872 71.609863,10.3792308 71.634411,11.5751282 C69.9401018,11.5751282 68.2462935,11.5751282 66.5519843,11.5751282 Z" id="Shape" fill="#929DC5" fill-rule="nonzero"></path>
                <path d="M94.6896908,9.15435897 C92.9831076,6.48487179 89.4389354,5.74461538 86.8468728,7.51615385 C86.7186223,7.60358974 86.5881174,7.68717949 86.387726,7.81948718 C86.387726,7.43512821 86.387726,7.15923077 86.387726,6.86 C85.3091194,6.86 84.2660822,6.86 83.1947397,6.86 C83.1947397,11.1233333 83.1947397,15.3679487 83.1947397,19.6158974 C84.3146771,19.6158974 85.400047,19.6158974 86.5212368,19.6158974 C86.5212368,19.3869231 86.5212368,19.2020513 86.5212368,19.0166667 C86.5212368,16.7879487 86.5813542,14.5564103 86.494184,12.3312821 C86.4546067,11.3215385 86.8841957,10.7561538 87.6396712,10.3187179 C87.9675616,10.1287179 88.318998,9.96025641 88.679953,9.85512821 C90.3507162,9.36897436 91.7925323,10.1476923 92.136955,11.7174359 C92.2158591,12.0784615 92.242411,12.4582051 92.2441644,12.8297436 C92.254184,14.9025641 92.2491742,16.975641 92.2491742,19.0484615 C92.2491742,19.2307692 92.2491742,19.4133333 92.2491742,19.6582051 C93.3287828,19.6582051 94.3174638,19.6535897 95.3061448,19.6612821 C95.5541292,19.6630769 95.6139961,19.5435897 95.6114912,19.3164103 C95.5839374,16.8238462 95.5891977,14.3305128 95.52382,11.8389744 C95.4990215,10.8851282 95.2114599,9.97 94.6896908,9.15435897 Z" id="Shape" fill="#929DC5" fill-rule="nonzero"></path>
                <path d="M48.464407,11.8523077 C48.221683,7.4574359 43.4070294,5.07717949 39.8172681,7.51153846 C39.6855108,7.60102564 39.5497456,7.68461538 39.3688924,7.80102564 C39.3506067,7.43615385 39.3365793,7.14974359 39.3215499,6.85102564 C38.259225,6.85102564 37.2427397,6.85102564 36.1799139,6.85102564 C36.1799139,11.135641 36.1799139,15.3769231 36.1799139,19.6287179 C37.294591,19.6287179 38.3681879,19.6287179 39.4993973,19.6287179 C39.4993973,19.415641 39.4993973,19.2328205 39.4993973,19.0502564 C39.4993973,16.7907692 39.5607671,14.5289744 39.471092,12.2733333 C39.4320157,11.294359 39.842317,10.7564103 40.5687358,10.334359 C40.8966262,10.1435897 41.2460587,9.97230769 41.6062622,9.86333333 C43.263499,9.36128205 44.7468963,10.1384615 45.0868102,11.6846154 C45.1694716,12.0607692 45.1997808,12.4558974 45.2017847,12.8428205 C45.2125558,14.9307692 45.207045,17.0184615 45.207045,19.1066667 C45.207045,19.2728205 45.207045,19.4392308 45.207045,19.6269231 C46.3510294,19.6269231 47.4366497,19.6269231 48.5245245,19.6269231 C48.5425597,19.5530769 48.5630998,19.5092308 48.5625988,19.465641 C48.5375499,16.9274359 48.6044305,14.3838462 48.464407,11.8523077 Z" id="Shape" fill="#929DC5" fill-rule="nonzero"></path>
                <path d="M6.61191389,5.57076923 C6.73966341,4.36461538 7.48010959,3.66333333 8.6666771,3.63461538 C9.07297065,3.62461538 9.47951468,3.63307692 9.95193738,3.63307692 C10.1062387,2.76205128 10.2730646,1.82102564 10.4441487,0.856153846 C8.9041409,0.345897436 6.90598826,0.558461538 5.5646184,1.31948718 C3.43095108,2.52948718 3.19173386,4.61153846 3.19148337,6.84076923 C2.094591,6.84076923 1.05305675,6.84076923 0.000250489237,6.84076923 C0.000250489237,7.82410256 0.000250489237,8.75025641 0.000250489237,9.7325641 C1.06933855,9.7325641 2.1108728,9.7325641 3.2,9.7325641 C3.2,9.9725641 3.2,10.1558974 3.2,10.3394872 C3.2,12.5364103 3.2,14.7335897 3.2,16.9307692 C3.2,17.7097436 3.19048141,18.4892308 3.20976908,19.2676923 C3.21277495,19.3979487 3.33776908,19.6351282 3.41066145,19.6366667 C4.44017221,19.6612821 5.47068493,19.6530769 6.56857926,19.6530769 C6.56857926,16.3205128 6.56857926,13.0438462 6.56857926,9.70487179 C7.90443836,9.70487179 9.17266536,9.70487179 10.4246106,9.70487179 C10.4246106,8.71461538 10.4246106,7.78794872 10.4246106,6.83461538 C9.49279061,6.83461538 8.59603914,6.83461538 7.69903718,6.83461538 C7.61787867,6.83461538 7.5427319,6.83461538 7.47209393,6.83410256 L7.47209393,6.83461538 L6.55630528,6.83461538 L6.55630528,6.35923077 C6.54879061,6.17589744 6.57434051,5.92410256 6.61191389,5.57076923 Z" id="Shape" fill="#929DC5" fill-rule="nonzero"></path>
                <path d="M54.6054012,15.9133333 C53.2409863,14.6989744 53.0934481,12.3584615 54.296047,10.9325641 C55.7288454,9.23358974 57.7222387,9.33051282 59.8228415,11.2258974 C60.5918434,10.5333333 61.3646027,9.8374359 62.1336047,9.14512821 C60.8072642,7.03692308 57.5200939,6.02128205 54.8140587,6.85487179 C52.0185988,7.71589744 50.00191,10.3305128 50.1314129,13.6387179 C50.2403757,16.4228205 52.1926888,18.9297436 54.958591,19.6889744 C57.8863092,20.4928205 61.1787397,19.3397436 62.5163523,17.025641 C61.672955,16.3792308 60.8280548,15.7315385 59.9839061,15.0848718 C58.2976125,17.3351282 55.8585988,17.0289744 54.6054012,15.9133333 Z" id="Shape" fill="#929DC5" fill-rule="nonzero"></path>
                <path d="M15.2683209,8.03846154 C15.2477808,7.59179487 15.2312485,7.23 15.2144658,6.86282051 C14.137863,6.86282051 13.1101057,6.86282051 12.0583014,6.86282051 C12.0583014,11.1228205 12.0583014,15.3546154 12.0583014,19.6594872 C13.0181761,19.6594872 13.9307084,19.6410256 14.8417378,19.6679487 C15.2480313,19.6802564 15.3888063,19.5766667 15.3845479,19.1292308 C15.3617534,16.7605128 15.3700196,14.3910256 15.3800391,12.0220513 C15.3810411,11.8 15.4095969,11.5315385 15.5303327,11.3641026 C16.2640157,10.3451282 17.2299022,9.72948718 18.502137,9.72641026 C18.8771194,9.72564103 19.2523523,9.76897436 19.6603992,9.79384615 C19.7863953,8.74641026 19.910137,7.72102564 20.037636,6.66205128 C18.2351155,6.36871795 16.6495186,6.69641026 15.2683209,8.03846154 Z" id="Shape" fill="#929DC5" fill-rule="nonzero"></path>
                <path d="M76.9480391,7.35692308 C76.9467867,11.2823077 76.9470372,15.2074359 76.9470372,19.1328205 C76.9470372,19.2107692 76.9199843,19.3061538 76.9538004,19.3625641 C77.02018,19.4720513 77.1193738,19.6420513 77.2077965,19.6438462 C78.2100039,19.6638462 79.2124618,19.6566667 80.2492368,19.6566667 C80.2492368,15.3448718 80.2492368,11.1038462 80.2492368,6.8674359 C79.1385675,6.8674359 78.0662231,6.8674359 76.9683288,6.8674359 C76.9603131,7.05076923 76.9480391,7.20384615 76.9480391,7.35692308 Z" id="Shape" fill="#929DC5" fill-rule="nonzero"></path>
            </g>
            <g id="Group" transform="translate(96.438356, 0.512821)">
                <path d="M2.91945205,6.32794872 C2.9835773,6.33051282 3.03517808,6.32589744 3.08101761,6.31717949 L2.46706849,6.31717949 C2.61786301,6.31897436 2.76865753,6.32205128 2.91945205,6.32794872 Z" id="Shape"></path>
                <path d="M6.68781213,6.32179487 C6.68931507,5.36769231 6.57859883,4.45948718 7.24314677,3.76512821 C8.02642661,2.94641026 9.03589824,3.07512821 10.0508806,3.20358974 C10.2209628,2.23692308 10.3865362,1.29358974 10.5591233,0.310769231 C9.49078669,0.0497435897 8.49283757,-0.0323076923 7.49563992,0.164358974 C5.5646184,0.544871795 4.08798434,1.52871795 3.57573386,3.58615385 C3.41542074,4.22923077 3.38736595,4.90974359 3.35254795,5.58230769 L3.35254795,6.3174359 L3.08101761,6.3174359 C3.03517808,6.32615385 2.9835773,6.33051282 2.91945205,6.32820513 C2.76865753,6.32230769 2.61786301,6.31923077 2.466818,6.3174359 L2.32303718,6.3174359 L2.32303718,6.31717949 C1.9432955,6.31564103 1.56355382,6.32205128 1.18381213,6.32205128 C0.824861057,6.32205128 0.46590998,6.32205128 0.0974403131,6.32205128 C0.0974403131,7.31769231 0.0974403131,8.24461538 0.0974403131,9.21025641 C1.02575342,9.21025641 1.9222544,9.23 2.81750294,9.20128205 C2.90893151,9.19846154 2.98482975,9.20282051 3.04895499,9.21512821 L3.33125636,9.21512821 L3.33125636,9.63102564 C3.33250881,9.65923077 3.33476321,9.68564103 3.33451272,9.7174359 C3.31622701,12.6628205 3.32474364,15.6084615 3.32474364,18.5541026 C3.32474364,18.7353846 3.32474364,18.9166667 3.32474364,19.1112821 C4.47373777,19.1112821 5.55960861,19.1112821 6.70284149,19.1112821 C6.70284149,15.7989744 6.70284149,12.5215385 6.70284149,9.1874359 C8.01415264,9.1874359 9.26860274,9.1874359 10.5112798,9.1874359 C10.5112798,8.20384615 10.5112798,7.27846154 10.5112798,6.32205128 C9.84773386,6.32205128 9.2252681,6.32205128 8.60280235,6.32205128 C7.97106849,6.32179487 7.33933464,6.32179487 6.68781213,6.32179487 Z" id="Shape" fill="#929DC5" fill-rule="nonzero"></path>
                <path d="M2.466818,6.3174359 C2.41897456,6.31692308 2.37088063,6.3174359 2.32303718,6.31717949 L2.32303718,6.3174359 L2.466818,6.3174359 Z" id="Shape" fill="#929DC5" fill-rule="nonzero"></path>
            </g>
        </g>
    </g>
</svg>