<?xml version="1.0" encoding="UTF-8"?>
<svg width="175px" height="95px" viewBox="0 0 175 95" version="1.1" xmlns="http://www.w3.org/2000/svg" xmlns:xlink="http://www.w3.org/1999/xlink">
    <!-- Generator: Sketch 53.2 (72643) - https://sketchapp.com -->
    <title>logo/groupe-pelloux</title>
    <desc>Created with Sketch.</desc>
    <defs>
        <polygon id="path-1" points="0 0.066878186 31.6121882 0.066878186 31.6121882 24.3962016 0 24.3962016"></polygon>
        <polygon id="path-3" points="0.125077957 0.0563657619 13.0804032 0.0563657619 13.0804032 13.420363 0.125077957 13.420363"></polygon>
    </defs>
    <g id="logo/groupe-pelloux" stroke="none" stroke-width="1" fill="none" fill-rule="evenodd">
        <g id="groupe-pelloux" transform="translate(0.000000, 26.000000)">
            <path d="M69.4552419,23.5480938 C69.2066667,25.1708681 64.9312097,24.9632885 63.319328,24.5821867 C63.5744892,23.2326336 64.4692473,22.5355009 64.6830108,21.1355274 C66.9691129,21.0059566 69.7119086,21.8608195 69.4552419,23.5480938 M65.0236022,26.9958947 C64.7466129,27.2894743 64.5866667,27.4858283 64.0005108,27.6846558 C63.1887366,27.6846558 62.8639516,27.6486956 62.4659677,27.1673239 C62.5301344,25.6381602 64.6830108,26.305992 64.6830108,26.305992 C65.2364247,26.4426027 65.2364247,26.4426027 65.0236022,26.9958947 M61.128629,24.5100761 C60.6674194,24.0652354 60.2506183,23.0880319 60.2506183,22.1692398 C60.4664516,20.9391735 60.4664516,20.9391735 62.2960484,20.7905761 C62.8850269,20.8914168 63.0703763,21.3866779 62.978172,22.1692398 C62.978172,22.1692398 62.2655645,24.0585761 61.128629,24.5100761 M40.9134946,26.2397796 C38.0258065,26.2397796 39.0466398,24.158085 39.0925538,23.5988947 C39.6056989,22.5315053 41.9471237,19.2178416 45.3281989,18.7220097 C45.4791129,18.7220097 46.0323387,18.798877 46.4295699,19.4117221 C47.6082796,24.1441956 42.9186559,25.7561248 40.9134946,26.2397796 M77.5387366,20.6572 C77.3319355,21.8018372 76.4298387,23.0998283 74.0481452,22.7993991 C73.8272312,20.1840097 77.2470699,19.3746204 77.5387366,20.6572 M72.1829839,25.2720894 C72.3675806,24.4824876 72.4592204,23.8081867 73.376371,23.5480938 C76.2665054,24.8506513 78.3761022,22.2286027 78.575,20.7905761 C78.5678495,20.230054 78.3761022,18.9940894 76.9559677,19.0667708 C73.7028495,19.4621425 73.0495161,22.4708106 70.4788978,23.5480938 C69.889543,19.1099611 62.8573656,18.363169 59.2273387,20.4452442 C58.2757527,22.3557 59.4619892,24.0867354 60.2506183,25.2720894 C58.5956452,25.8463106 57.9558602,27.5695451 56.1595699,27.1673239 C54.3693011,26.7732841 54.8596774,24.0151956 53.0912366,23.3757133 C51.4221505,24.165315 50.8247043,26.025731 48.9996237,26.6583637 C49.4258333,25.2146292 50.632957,20.5321956 47.9767204,21.8242885 C47.9767204,19.8284035 47.0319086,17.7244478 44.9085753,17.342585 C43.9116398,17.4611204 43.2899194,17.8707619 42.9004032,18.0935628 C39.8098656,19.8599876 39.6026882,20.3046381 38.0897849,22.1692398 C37.571371,21.0274566 37.0386559,19.9067929 35.5327151,19.7568637 C34.9710215,19.7757 35.1008602,19.4883991 34.339328,20.4452442 C34.2388441,20.5719611 33.9076613,21.0411558 33.8071774,21.1621646 C33.2810484,21.7961292 33.2810484,21.7961292 32.9758333,22.1692398 C32.8618011,22.3130805 32.2385753,23.1192354 32.1392204,23.2701159 C31.6701075,24.0030186 31.4629301,24.2733858 31.2709946,24.5821867 C30.5820968,25.7097 30.7729032,27.0744743 31.8595968,27.6846558 C33.6351882,25.8607708 34.4097043,23.792585 35.8733065,21.6458195 C36.3698925,21.1250628 36.4417742,21.479908 36.7262903,21.479908 C37.3448118,22.1692398 38.0990054,22.7246248 37.4080376,23.7277044 C37.0597312,24.0081558 36.8901882,24.6622885 36.7866935,25.3400142 C36.8533065,26.5036779 36.9584946,26.4816071 37.326371,26.9093239 C39.3315323,28.434492 40.4650806,28.2564035 41.6306183,28.0809788 C45.2941398,27.5301602 45.9807796,25.0565186 47.9767204,23.5480938 C47.9912097,25.6166602 47.0179839,27.7856867 48.6586559,28.7263593 C50.6619355,27.9932664 51.8193817,26.4001735 53.4323925,25.2720894 C54.1769892,27.447585 55.5269355,29.4661115 58.5455914,28.3745584 C58.7371505,27.8857664 59.0783065,27.5417664 59.5679301,27.3476956 C60.0026075,27.3621558 60.2289785,27.5916159 60.2506183,28.0370274 C58.2336022,32.9416912 56.4847312,37.5316558 54.3612097,42.3360496 C54.6521237,42.5015805 54.6381989,42.9751513 55.213629,42.8526204 C58.0188978,38.5649876 58.9785753,33.0069522 61.7849731,28.7263593 C62.3329301,28.9006425 61.8643817,28.8995009 62.8075,29.0633195 C64.561828,29.3685053 66.2422043,28.787815 67.9216398,27.6846558 C68.8308871,26.8809743 69.1485215,25.4399035 70.2521505,25.2169124 C71.1350538,25.5144876 71.4987903,27.7072973 73.4160753,28.0809788 C74.4177151,28.2817088 75.8199731,28.1810584 76.9559677,28.0370274 C79.1434677,27.7561956 81.8710215,27.8572265 82.752043,26.477992 C80.5927688,24.0509655 74.0011022,28.9133903 72.1829839,25.2720894" id="Fill-1" fill="#929DC5" fill-rule="nonzero"></path>
            <g id="Group-5" transform="translate(0.000000, 3.678022)">
                <g id="Fill-3-Clipped">
                    <mask id="mask-2" fill="white">
                        <use xlink:href="#path-1"></use>
                    </mask>
                    <g id="path-1"></g>
                    <path d="M31.2710323,13.6645248 C24.9352796,16.9618257 16.1839624,22.2477814 6.80076344,21.2492681 C4.19307527,20.976808 1.71240323,19.9432858 1.41377419,17.9799363 C1.03743011,15.506485 2.16646237,13.7940956 9.20767204,8.23453805 C12.7040968,5.61267965 15.1503333,4.47108673 18.4860591,2.97845398 C19.0121882,2.74328584 20.9083978,2.04520177 21.2136129,1.9441708 C22.9323763,1.37698938 23.8312742,1.76436991 24.6835054,2.87799381 C25.247457,3.74617522 23.206543,4.50952035 23.5763011,5.85564867 C24.9286935,6.57313982 25.4681828,4.93628584 26.1570806,3.8405469 C27.005172,2.18790088 26.0643118,1.23657345 25.1341774,0.56550708 C22.1126989,-1.61740885 13.3794462,4.05592743 12.8606559,4.35749823 C10.6232903,5.68612212 8.53984946,7.12490973 6.49441935,8.65692743 C1.41377419,12.4622372 -0.467946237,14.9356885 0.0965698925,18.5507327 C0.661086022,21.404715 4.23635484,22.546308 9.88151613,22.546308 C17.4083978,22.3560425 21.5481828,20.2631221 26.838828,17.4576575 C26.4485591,20.2155558 23.0593925,21.0260867 24.3590968,24.3589673 C25.1546882,24.4668478 25.3946075,24.3700027 25.7227796,23.6696354 C26.9500376,21.3162416 27.6152258,20.6478389 28.6812204,18.8730425 C29.8672688,17.3147681 31.0847419,16.4673257 31.6121882,14.0096664 C31.4061398,13.995777 31.844957,13.8389982 31.2710323,13.6645248" id="Fill-3" fill="#929DC5" fill-rule="nonzero" mask="url(#mask-2)"></path>
                </g>
            </g>
            <path d="M115.391839,20.9019385 C116.575065,19.7552084 117.073156,19.2995226 118.297968,19.897527 C118.297968,21.7202704 116.314823,23.0047527 114.36743,23.0962704 C114.140495,21.8901774 115.036946,21.2457482 115.391839,20.9019385 M131.75528,13.7888633 C131.072215,13.7888633 130.585414,15.855527 129.776086,16.8723058 C129.040333,18.3849164 125.453586,21.3880668 124.936113,21.7177969 C123.611194,22.8827925 119.916812,25.1983235 116.789769,26.4070801 C115.667699,26.7233013 112.982108,28.1369739 112.559097,26.7419473 C112.632672,24.5099429 121.204473,23.5057217 120.504285,18.7875181 C120.504285,18.7875181 120.526677,18.42335 120.163317,17.9254252 C118.492914,17.2937438 118.297968,17.591319 117.435763,17.9254252 C114.881516,19.3746774 110.719715,23.0047527 110.276382,26.7162615 C110.094231,28.0623898 112.321812,28.9634872 112.321812,28.9634872 C113.940656,29.8392792 119.717161,26.9569473 122.037887,25.5092173 C122.804876,25.0308898 122.51321,25.1831022 123.687027,24.5099429 C124.700522,23.9288721 125.286113,22.6586597 126.685925,23.0962704 C127.075065,23.2686509 125.165306,26.543881 125.277457,27.4055934 C125.336919,27.7834606 125.532806,27.9583146 125.959204,27.9231155 C127.372753,27.1755624 127.865387,24.1313146 128.618075,22.2286597 C129.79622,19.3035181 131.072215,18.4286774 131.284473,18.0749739 C132.262215,16.4430668 134.070737,15.0889473 131.75528,13.7888633" id="Fill-6" fill="#929DC5" fill-rule="nonzero"></path>
            <path d="M138.57375,26.0442248 C138.347944,26.132508 137.832728,26.0442248 138.233347,25.5280345 C139.227272,23.0498265 143.274099,18.7410743 147.048266,22.3382336 C147.728884,23.3799372 142.37332,25.6425743 138.57375,26.0442248 M143.517218,27.0857381 C143.154422,26.8625566 143.094395,26.7470655 143.346546,26.2171761 C144.236411,25.6534195 145.448051,24.3099549 146.244772,25.0107027 C146.772406,25.960508 144.44039,26.4102956 143.517218,27.0857381 M156.984126,21.218331 C155.583374,21.3711142 153.695444,25.4770434 150.84746,26.3964062 C151.067621,24.3997602 152.80746,20.9317912 149.483777,20.874331 C149.218831,21.110831 149.185712,21.4911717 148.80203,21.5629018 C147.352917,21.4200124 147.211035,19.9538265 146.073911,19.4952867 C145.687218,19.336415 143.971841,19.3653354 143.177003,19.4952867 C140.70461,19.9112071 137.949019,22.3888442 136.868723,23.9762292 C136.457944,24.5940212 136.67246,24.9701761 136.016868,25.3548929 C133.886949,26.6047469 132.569745,26.9852779 132.381573,26.0339504 C132.193401,23.9410301 132.636358,23.0256628 133.134261,21.8481097 C133.645336,20.6342159 136.79703,15.1833 137.464852,14.098977 C138.153562,13.0003841 140.444745,10.391654 138.915094,9.84273805 C138.409288,9.59805664 138.586922,9.69109646 137.892003,9.84273805 C137.232083,10.1684726 130.98797,19.0352248 131.073589,26.2173664 C131.12703,27.0857381 131.346062,28.0481009 132.777863,28.1133619 C134.393132,28.0667469 135.157675,27.423269 136.357836,27.0857381 C137.188427,27.4948088 137.942056,28.3496717 139.084825,27.9413619 C142.821734,30.1311274 148.553266,27.7971407 148.80203,23.2865168 C148.998105,22.9333841 149.235013,22.5827248 149.82418,22.5975655 C150.892809,22.9333841 148.048589,26.7915876 149.653508,28.6293619 C153.837513,28.4933221 155.95125,22.9891319 157.018185,23.7703619 C157.606599,24.4214504 157.408454,25.2728885 157.97297,26.9852779 C158.349315,27.9366053 158.838374,29.3407646 160.905632,29.4924062 C161.54297,28.6061496 159.666519,27.9366053 159.290175,26.4144814 C158.174879,22.8669814 158.349315,21.4675788 156.984126,21.218331" id="Fill-8" fill="#929DC5" fill-rule="nonzero"></path>
            <path d="M117.094382,15.1675841 C123.375565,5.3904115 107.023038,1.71619469 97.3205108,-2.84217094e-14 C96.8664516,1.15624336 97.8033602,2.07541593 98.3437903,2.75770796 C98.9474462,2.8010885 98.6777957,1.95326549 99.3657527,2.06818584 C104.856989,3.16696903 115.445995,5.2950885 116.575027,9.4809292 C117.332608,12.2888673 116.802339,13.5303496 114.708737,16.2020575 C112.058898,19.3747345 107.806586,20.6685398 104.441505,21.1872035 C103.748656,21.294323 102.601935,21.5095133 102.775618,20.5113805 C104.26086,17.0704292 106.402258,13.4801195 106.991801,9.13521681 C106.544704,8.90556637 106.697688,8.7879823 105.673844,8.96264602 C104.977043,13.7820708 102.754919,17.0495 101.242016,21.0279513 C100.425161,21.2872832 100.532043,20.6046106 99.8785215,20.6839513 C99.5727419,20.9558407 99.2236828,21.1719823 99.3657527,21.8902345 C99.6150806,22.385115 100.339543,22.3999558 100.389597,23.0961372 C99.9135215,24.2310708 97.5252419,26.5930265 98.4369355,27.0603186 C99.9291398,27.0603186 100.786828,24.0229204 101.923763,22.7513761 C103.464704,22.2127345 105.077151,22.385115 106.525699,22.062615 C111.285323,21.0064513 114.546156,19.3024336 117.094382,15.1675841" id="Fill-10" fill="#929DC5" fill-rule="nonzero"></path>
            <g id="Group-14" transform="translate(161.827957, 19.089527)">
                <g id="Fill-12-Clipped">
                    <mask id="mask-4" fill="white">
                        <use xlink:href="#path-3"></use>
                    </mask>
                    <g id="path-3"></g>
                    <path d="M12.8492715,1.2495115 L12.8492715,0.904179646 L12.8492715,1.2495115 Z M6.43185215,3.91018407 C5.79225538,3.06978142 6.11233602,1.2451354 4.72701344,1.15266637 C3.56241667,2.08534779 4.84838441,3.98172389 5.06835753,5.11646726 C3.39927151,7.73832566 0.259620968,9.79148053 0.125077957,13.396631 C1.32542742,13.6913522 2.06343817,11.163485 3.02330376,10.1156929 C4.19429839,8.85023717 5.60069624,7.88844513 6.60271237,6.84046283 C8.20085753,7.45026372 11.809621,10.3527637 12.5688952,7.18503363 C11.745078,6.18652035 9.23768548,6.88403363 8.64851882,5.63379912 C8.23566935,4.75039646 9.72749731,4.09664425 10.5230887,3.39970177 C11.4605618,2.57509115 12.5459382,1.84960885 13.0805349,1.15266637 L13.0805349,0.807334513 C11.5392177,-1.87008142 8.37152957,3.43585221 6.43185215,3.91018407 Z" id="Fill-12" fill="#929DC5" fill-rule="nonzero" mask="url(#mask-4)"></path>
                </g>
            </g>
        </g>
    </g>
</svg>