<?xml version="1.0" encoding="UTF-8"?>
<svg width="175px" height="95px" viewBox="0 0 175 95" version="1.1" xmlns="http://www.w3.org/2000/svg" xmlns:xlink="http://www.w3.org/1999/xlink">
    <!-- Generator: Sketch 53.2 (72643) - https://sketchapp.com -->
    <title>logo/mskh</title>
    <desc>Created with Sketch.</desc>
    <defs>
        <polygon id="path-1" points="0.184055583 0.0957382353 100.920303 0.0957382353 100.920303 33.9079029 0.184055583 33.9079029"></polygon>
        <polygon id="path-3" points="0 42.3985059 100.920303 42.3985059 100.920303 0 0 0"></polygon>
        <polygon id="path-5" points="0 42.3985059 100.920303 42.3985059 100.920303 0 0 0"></polygon>
        <polygon id="path-7" points="0 42.3985059 100.920303 42.3985059 100.920303 0 0 0"></polygon>
        <polygon id="path-9" points="0 42.3985059 100.920303 42.3985059 100.920303 0 0 0"></polygon>
        <polygon id="path-11" points="0 42.3985059 100.920303 42.3985059 100.920303 0 0 0"></polygon>
        <polygon id="path-13" points="0 42.3985059 100.920303 42.3985059 100.920303 0 0 0"></polygon>
    </defs>
    <g id="logo/mskh" stroke="none" stroke-width="1" fill="none" fill-rule="evenodd">
        <g id="mskh" transform="translate(37.000000, 26.000000)">
            <g id="Group-3" transform="translate(0.000000, 0.157329)">
                <g id="Fill-1-Clipped">
                    <mask id="mask-2" fill="white">
                        <use xlink:href="#path-1"></use>
                    </mask>
                    <g id="path-1"></g>
                    <path d="M26.9633409,0.912232353 L22.0278744,0.912232353 L13.7135444,25.3167559 L13.6235717,25.3167559 L5.30773797,0.912232353 L0.185308685,0.959026471 L0.185308685,1.59365588 L0.184055583,1.54736765 L0.184055583,32.57465 L0.185308685,32.6214441 L0.185308685,33.2565794 L0.851958809,33.2100382 L0.851958809,32.57465 L0.858725558,32.57465 L0.858725558,2.13697353 L0.948447643,2.13697353 L11.6456759,33.2555676 L22.3877653,1.81927941 L22.4774873,1.81927941 L22.4774873,32.57465 L22.473728,32.57465 L22.473728,33.2100382 L26.9633409,33.2100382 L26.9633409,32.57465 L26.9721127,32.57465 L26.9721127,1.54736765 L26.9633409,1.54736765 L26.9633409,0.912232353 Z M58.6176933,13.7495029 L70.0334501,1.54736765 L70.0136511,1.54736765 L70.6281722,0.912232353 L69.7324551,0.912232353 L69.1186859,1.54736765 L69.1344749,1.54736765 L55.111264,16.4430735 L55.111264,1.54736765 L55.0751747,1.54736765 L55.0751747,0.912232353 L50.5978422,0.912232353 L50.5978422,1.54736765 L50.6168893,1.54736765 L50.6168893,19.2714618 C50.0449737,18.3224265 49.3627851,17.5542441 48.5685692,16.9704559 C47.7432764,16.3656735 46.8974328,15.91215 46.0287826,15.6096324 C45.1593806,15.3078735 44.4398496,15.0653029 43.8716933,14.8836912 L38.4324799,13.1598971 C37.6533012,12.9180853 36.8821424,12.6383324 36.1182516,12.3206382 C35.9558496,12.2531029 35.7989613,12.1807618 35.6433261,12.1063971 C35.6310457,12.1003265 35.6192665,12.0940029 35.6069861,12.0879324 C35.2633856,11.9220029 34.9360754,11.7393794 34.6268099,11.5395559 C34.577939,11.5081912 34.5285667,11.4773324 34.4791945,11.4462206 C34.3328323,11.3480794 34.1892268,11.2474088 34.0503831,11.1414265 C33.435862,10.6729794 32.9333682,10.0982971 32.5449067,9.41763235 C32.1566958,8.73949706 31.9619638,7.91895588 31.96046,6.95499706 C31.9612119,6.27787353 32.0479266,5.67435588 32.204063,5.13002647 C32.3256139,4.70508529 32.4862615,4.31277353 32.701795,3.96877353 C33.1960184,3.18263235 33.8185593,2.54749706 34.5674129,2.06362059 C35.3160159,1.58025 36.125269,1.24004412 36.9949216,1.04300294 C37.8630705,0.846720588 38.6572864,0.747820588 39.3760655,0.747820588 C39.4169166,0.747820588 39.4542591,0.753132353 39.4936065,0.753385294 C40.7324228,0.76755 41.8263806,0.997726471 42.769465,1.45125 C43.7431251,1.92045588 44.5746834,2.53990882 45.2648918,3.31087353 C45.9530953,4.08183824 46.5154873,4.97472059 46.9495618,5.98749706 C47.3836362,7.00077941 47.6916486,8.05149706 47.8718447,9.14015588 L47.9101896,9.14015588 L48.4106784,9.14015588 L48.4106784,9.12270294 L48.4106784,4.77641471 L48.4106784,0.912232353 L47.7816213,0.912232353 C47.5410258,1.33616176 47.3548149,1.60048529 47.2192293,1.70621471 C47.0851474,1.81219706 46.8222467,1.86506176 46.4327826,1.86506176 C46.0129935,1.86506176 45.6019762,1.77425588 45.1969737,1.59264412 C44.9806883,1.49551471 44.7481127,1.39155588 44.5017529,1.28152647 C44.1190556,1.08979706 43.7218223,0.919567647 43.3103037,0.772861765 C42.9195866,0.627420588 42.4872665,0.491844118 42.0058248,0.368155882 C41.3018323,0.186544118 40.4254129,0.0957382353 39.3760655,0.0957382353 C37.9385072,0.0957382353 36.6122243,0.337802941 35.3987206,0.821426471 C34.1852169,1.30555588 33.14414,1.97129706 32.2749886,2.81738529 C31.4060878,3.66473824 30.7321697,4.67017941 30.2524824,5.83396176 C29.772795,6.99875588 29.5337032,8.26067941 29.5337032,9.62175588 C29.5337032,9.62479118 29.5337032,9.62782647 29.5337032,9.63086176 C29.5337032,9.63364412 29.5337032,9.63617353 29.5337032,9.63870294 C29.5337032,9.66956176 29.5352069,9.69915588 29.5357082,9.72976176 C29.5507454,11.1722853 29.8677801,12.4099265 30.4858099,13.4419265 C30.491073,13.4510324 30.4950829,13.4596324 30.5005965,13.4689912 C30.5086164,13.48265 30.51814,13.4958029 30.5264104,13.5092088 C30.7720184,13.9073382 31.0619861,14.2756206 31.3988199,14.6115265 C31.4870382,14.69955 31.5850308,14.7837794 31.679264,14.8692735 C31.7045767,14.8948206 31.7308918,14.9211265 31.7554526,14.9456618 C32.0877752,15.2805559 32.5251077,15.5770029 32.9694576,15.8522029 C33.0554203,15.9070912 33.1453931,15.9602088 33.2343633,16.0140853 C33.4248347,16.1286676 33.6133012,16.2404676 33.7914923,16.3499912 C34.6907181,16.8310853 35.7262814,17.2557735 36.9049489,17.6227912 L36.9480556,17.6361971 L42.0729911,19.21025 C42.7025494,19.3918618 43.3689489,19.6493559 44.0736933,19.9814676 C44.776934,20.3145912 45.4292988,20.7456029 46.0287826,21.2739971 C46.6275146,21.8036559 47.1222392,22.4468853 47.5119538,23.2021676 C47.8991623,23.9561853 48.0943955,24.8599441 48.0956486,25.9134441 C48.0948968,26.6376147 47.9753509,27.4283088 47.7362591,28.2883088 C47.7142045,28.3669735 47.6893931,28.4443735 47.6645816,28.5220265 C47.6485419,28.5708441 47.6332541,28.6199147 47.6159613,28.6687324 C47.5926536,28.7350029 47.5688447,28.8007676 47.543532,28.8662794 C47.4901499,29.0003382 47.4347628,29.1338912 47.3741127,29.2654206 C47.3254923,29.3706441 47.2723608,29.4746029 47.2182268,29.5783088 C47.1741176,29.6610206 47.1287553,29.7434794 47.0808868,29.8249265 C47.0786313,29.8292265 47.0761251,29.8330206 47.0738695,29.8370676 C46.9001896,30.1309853 46.7016983,30.4163029 46.4783955,30.6930206 C45.8781598,31.4338853 45.0696586,32.04575 44.0513881,32.5296265 C43.0321151,33.0140088 41.7288893,33.2555676 40.1404576,33.2555676 C39.5710481,33.2555676 38.9642963,33.2391265 38.3204526,33.2100382 C37.6761077,33.1801912 37.0014377,33.0737029 36.298197,32.8920912 C35.593202,32.7107324 34.8962268,32.42415 34.2080233,32.0305735 C33.5178149,31.6380088 32.858934,31.0779971 32.2301275,30.3523088 C31.6013211,29.6263676 31.0236412,28.7041441 30.4993434,27.5853853 C29.9755469,26.4666265 29.5484898,25.0901206 29.2186734,23.4568794 L28.7247007,23.4568794 L28.7247007,23.4745853 L28.7247007,28.6980735 L28.7247007,33.2100382 L29.3986189,33.2100382 C29.5176635,32.9080265 29.6607677,32.6657088 29.8254253,32.4840971 C29.9898323,32.3022324 30.2980953,32.2116794 30.7469563,32.2116794 C31.2559663,32.2116794 31.8557007,32.3333441 32.5449067,32.57465 C33.0346189,32.7471559 33.5007727,32.9032206 33.9453732,33.0446147 C33.9919886,33.0638382 34.0378521,33.0845794 34.0847181,33.1030441 C34.2152913,33.1442735 34.3513782,33.1890441 34.4779414,33.2274912 C34.9864501,33.3784971 35.4511002,33.4913088 35.8713906,33.5676971 C36.2896759,33.6425676 36.709465,33.7106088 37.1292541,33.7713147 C37.5487926,33.8317676 37.9984055,33.8692029 38.4780928,33.8846324 C38.5249588,33.8864029 38.5813484,33.8869088 38.6289663,33.8881735 C39.0745692,33.9003147 39.5728025,33.9079029 40.1404576,33.9079029 C40.2168968,33.9079029 40.2888248,33.8993029 40.3642615,33.8977853 C40.4271672,33.8993029 40.4890705,33.9079029 40.5519762,33.9079029 C42.0840184,33.9079029 43.5396213,33.5922324 44.8716685,33.0344971 C44.8824452,33.03045 44.8942243,33.0274147 44.9052516,33.0231147 C44.912269,33.0198265 44.919537,33.0157794 44.926805,33.0129971 C45.4328074,32.7985029 45.9215171,32.5513794 46.3879216,32.26935 C46.4287727,32.2453206 46.4666164,32.2185088 46.5067156,32.1934676 C46.9605891,31.9195324 47.3863931,31.6197971 47.7838769,31.2929971 C48.0347479,31.0946912 48.2765965,30.8872794 48.5009017,30.6644382 C48.7841027,30.3829147 49.0432442,30.0846971 49.2883509,29.7788912 C49.3492516,29.7027559 49.4041375,29.6223206 49.462532,29.5446676 C49.4953633,29.5014147 49.5281945,29.4576559 49.5602739,29.4136441 C49.9730457,28.8495853 50.3259191,28.2465735 50.6168893,27.6028382 L50.6168893,32.57465 L50.5978422,32.57465 L50.5978422,33.2100382 L55.0751747,33.2100382 L55.0751747,32.57465 L55.111264,32.57465 L55.111264,17.3840147 L55.652604,16.8227382 L68.9542789,32.57465 L69.5084005,33.2100382 L70.9472119,33.2100382 L74.9513732,33.2100382 L75.4944675,33.2100382 L74.9320754,32.57465 L58.6176933,13.7495029 Z M100.920403,1.54736765 L100.920403,32.57465 L100.902358,32.57465 L100.902358,33.2100382 L96.412996,33.2100382 L96.412996,32.57465 L96.4247752,32.57465 L96.4247752,17.0159853 L81.4579787,17.0159853 L81.4579787,32.57465 L81.4484551,32.57465 L81.4484551,33.2100382 L76.9588422,33.2100382 L76.9588422,32.57465 L76.9638546,32.57465 L76.9638546,1.54736765 L76.9588422,1.54736765 L76.9588422,0.912232353 L81.4484551,0.912232353 L81.4484551,1.54736765 L81.4579787,1.54736765 L81.4579787,16.3805971 L96.4247752,16.3805971 L96.4247752,1.54736765 L96.412996,1.54736765 L96.412996,0.912232353 L100.902358,0.912232353 L100.902358,1.54736765 L100.920403,1.54736765 Z" id="Fill-1" fill="#929DC5" fill-rule="nonzero" mask="url(#mask-2)"></path>
                </g>
            </g>
            <polygon id="Fill-4" fill="#929DC5" fill-rule="nonzero" points="0 39.0330982 0.414776675 39.0330982 0.414776675 42.17311 2.01473697 42.17311 2.01473697 42.5616276 0 42.5616276"></polygon>
            <path d="M6.33563226,41.2159553 C6.33563226,41.4086965 6.31182333,41.59132 6.26395484,41.7640788 C6.21633697,41.9370906 6.14064963,42.0891082 6.0368928,42.2203847 C5.9333866,42.3516612 5.79755037,42.4561259 5.62963474,42.5342847 C5.46171911,42.6124435 5.25746352,42.6513965 5.01711861,42.6513965 C4.7767737,42.6513965 4.57276873,42.6124435 4.4048531,42.5342847 C4.23693747,42.4561259 4.10110124,42.3516612 3.99759504,42.2203847 C3.89383821,42.0891082 3.81815087,41.9370906 3.770533,41.7640788 C3.72266452,41.59132 3.69885558,41.4086965 3.69885558,41.2159553 L3.69885558,39.0330729 L4.11338164,39.0330729 L4.11338164,41.1562612 C4.11338164,41.2991729 4.12841886,41.4370259 4.15799206,41.5695671 C4.18756526,41.7028671 4.23693747,41.8209906 4.30610868,41.9239376 C4.3752799,42.0266318 4.46725757,42.1088376 4.58254293,42.1703024 C4.69782829,42.23202 4.84268685,42.2626259 5.01711861,42.2626259 C5.19180099,42.2626259 5.33640893,42.23202 5.45169429,42.1703024 C5.56697965,42.1088376 5.65920794,42.0266318 5.72837916,41.9239376 C5.79755037,41.8209906 5.84667196,41.7028671 5.87649578,41.5695671 C5.90606898,41.4370259 5.92085558,41.2991729 5.92085558,41.1562612 L5.92085558,39.0330729 L6.33563226,39.0330729 L6.33563226,41.2159553 Z" id="Fill-6" fill="#929DC5" fill-rule="nonzero"></path>
            <polygon id="Fill-8" fill="#929DC5" fill-rule="nonzero" points="9.25911861 40.7026618 8.0839598 39.0329971 8.61702928 39.0329971 9.56036427 40.41355 10.4936744 39.0329971 11.0122079 39.0329971 9.83679851 40.7026618 11.125739 42.5617794 10.5776323 42.5617794 9.54081588 40.9965794 8.49873648 42.5617794 7.98521538 42.5617794"></polygon>
            <path d="M15.4119233,41.2159553 C15.4119233,41.4086965 15.3881144,41.59132 15.3402459,41.7640788 C15.292628,41.9370906 15.2169407,42.0891082 15.1131839,42.2203847 C15.009427,42.3516612 14.8738414,42.4561259 14.7059258,42.5342847 C14.5377596,42.6124435 14.3337546,42.6513965 14.0934097,42.6513965 C13.8530648,42.6513965 13.6490598,42.6124435 13.4811442,42.5342847 C13.3132285,42.4561259 13.1773923,42.3516612 13.0736355,42.2203847 C12.9701293,42.0891082 12.8941913,41.9370906 12.8465734,41.7640788 C12.798705,41.59132 12.7751467,41.4086965 12.7751467,41.2159553 L12.7751467,39.0330729 L13.1896727,39.0330729 L13.1896727,41.1562612 C13.1896727,41.2991729 13.2044593,41.4370259 13.2342831,41.5695671 C13.2638563,41.7028671 13.3132285,41.8209906 13.3823998,41.9239376 C13.451571,42.0266318 13.5435486,42.1088376 13.658834,42.1703024 C13.7741194,42.23202 13.9189779,42.2626259 14.0934097,42.2626259 C14.2680921,42.2626259 14.4127,42.23202 14.5279854,42.1703024 C14.6432707,42.1088376 14.735499,42.0266318 14.8046702,41.9239376 C14.8738414,41.8209906 14.922963,41.7028671 14.9525362,41.5695671 C14.98236,41.4370259 14.9971467,41.2991729 14.9971467,41.1562612 L14.9971467,39.0330729 L15.4119233,39.0330729 L15.4119233,41.2159553 Z" id="Fill-10" fill="#929DC5" fill-rule="nonzero"></path>
            <path d="M17.92547,40.5880541 L18.2958868,40.5880541 C18.4109216,40.5880541 18.5304675,40.5845129 18.6540233,40.5781894 C18.7773285,40.5716129 18.8908596,40.54986 18.9946164,40.5134365 C19.0983732,40.4770129 19.1838347,40.4193424 19.2515022,40.3411835 C19.3189191,40.2635306 19.3527529,40.1512247 19.3527529,40.0050247 C19.3527529,39.8785541 19.3279414,39.7773776 19.2785692,39.7007365 C19.229197,39.6246012 19.1640357,39.5654129 19.0835866,39.5239306 C19.0028868,39.4824482 18.9124129,39.4551306 18.8119141,39.4419776 C18.7114154,39.4285718 18.6101648,39.4219953 18.5081623,39.4219953 L17.92547,39.4219953 L17.92547,40.5880541 Z M17.5106933,39.0332247 L18.4044055,39.0332247 C18.5725717,39.0332247 18.7394849,39.0430894 18.9058968,39.0630718 C19.0718074,39.0830541 19.2209266,39.1263071 19.3527529,39.1925776 C19.4843285,39.2591012 19.5910928,39.3562306 19.6735469,39.4842188 C19.7557504,39.6119541 19.7971027,39.7857247 19.7971027,40.0050247 C19.7971027,40.2642894 19.719661,40.4734718 19.5650283,40.6328247 C19.4101449,40.7926835 19.1961151,40.8936071 18.922939,40.9371129 L19.9156462,42.5617541 L19.4068868,42.5617541 L18.4587901,40.9765718 L17.92547,40.9765718 L17.92547,42.5617541 L17.5106933,42.5617541 L17.5106933,39.0332247 Z" id="Fill-12" fill="#929DC5" fill-rule="nonzero"></path>
            <polygon id="Fill-14" fill="#929DC5" fill-rule="nonzero" points="22.4143561 41.0415524 21.110629 39.0331994 21.6389367 39.0331994 22.6216191 40.6279935 23.6341253 39.0331994 24.1326092 39.0331994 22.8291328 41.0415524 22.8291328 42.5617288 22.4143561 42.5617288"></polygon>
            <path d="M30.8337712,39.7605571 C30.72826,39.6178982 30.5984387,39.5109041 30.4435553,39.4390688 C30.2889226,39.3677394 30.1275231,39.3320747 29.9596074,39.3320747 C29.7653767,39.3320747 29.5866844,39.3720394 29.4240318,39.4514629 C29.2608779,39.5313924 29.1202799,39.6386394 29.0014859,39.7732041 C28.8831931,39.9075159 28.7909648,40.0638335 28.7250516,40.2416512 C28.6591385,40.4192159 28.6263072,40.6046218 28.6263072,40.7973629 C28.6263072,41.00351 28.6591385,41.1952394 28.7250516,41.3730571 C28.7909648,41.5506218 28.8821906,41.7051688 28.9992303,41.8364453 C29.1160194,41.9679747 29.2561161,42.0716806 29.4190194,42.1478159 C29.5819226,42.2242041 29.7621186,42.2626512 29.9596074,42.2626512 C30.1736372,42.2626512 30.3646099,42.22041 30.5325256,42.1356747 C30.7004412,42.0509394 30.8468035,41.9285159 30.9721136,41.7691629 L31.2831335,42.0332335 C31.1249921,42.2459571 30.9347712,42.4022747 30.7127216,42.5019335 C30.4904213,42.6013394 30.2392998,42.6514218 29.9596074,42.6514218 C29.7094883,42.6514218 29.4759102,42.6046276 29.2583717,42.5117982 C29.0410839,42.4189688 28.8526174,42.2899688 28.6929722,42.1255571 C28.533327,41.9608924 28.4082675,41.7658747 28.3177935,41.5399982 C28.227069,41.3141218 28.1819573,41.0664924 28.1819573,40.7973629 C28.1819573,40.5380982 28.2255653,40.2957806 28.3127811,40.0699041 C28.399997,39.8437747 28.5225504,39.6477453 28.6806918,39.48131 C28.8388333,39.3156335 29.0262973,39.1843571 29.2435851,39.0877335 C29.460873,38.9916159 29.6994635,38.9435571 29.9596074,38.9435571 C30.1966943,38.9435571 30.4245082,38.9865571 30.6435504,39.07281 C30.8623419,39.1593159 31.0460467,39.3004571 31.1941633,39.4964865 L30.8337712,39.7605571 Z" id="Fill-16" fill="#929DC5" fill-rule="nonzero"></path>
            <path d="M34.4287196,39.5713318 L34.4186948,39.5713318 L33.6928983,41.3054965 L35.1199305,41.3054965 L34.4287196,39.5713318 Z M34.241005,39.0330729 L34.6312208,39.0330729 L36.1176501,42.5616024 L35.6337022,42.5616024 L35.278072,41.69452 L33.529995,41.69452 L33.169603,42.5616024 L32.7004417,42.5616024 L34.241005,39.0330729 Z" id="Fill-18" fill="#929DC5" fill-rule="nonzero"></path>
            <path d="M39.4854362,39.6560671 C39.416265,39.5432553 39.3240367,39.4610494 39.2087514,39.4091965 C39.0937166,39.3578494 38.9736695,39.3320494 38.8483593,39.3320494 C38.756131,39.3320494 38.6656571,39.3439376 38.5766868,39.3667024 C38.4879672,39.3902259 38.4080194,39.4251318 38.3373444,39.4716729 C38.2664189,39.5182141 38.209528,39.5794259 38.1669226,39.6560671 C38.1240665,39.7324553 38.1027638,39.8222494 38.1027638,39.9249435 C38.1027638,40.0051259 38.1150442,40.0754435 38.139605,40.1369082 C38.1644164,40.1986259 38.2047663,40.25402 38.2606546,40.3041024 C38.3165429,40.3536788 38.3924809,40.40022 38.4879672,40.4434729 C38.583203,40.4867259 38.7002427,40.5299788 38.8383345,40.5729788 C38.9736695,40.6162318 39.1042427,40.66252 39.2310566,40.7126024 C39.3576199,40.7624318 39.4698978,40.8256671 39.5668878,40.9020553 C39.6638779,40.9784435 39.7413196,41.0738024 39.7989623,41.1886376 C39.8563543,41.30322 39.8854263,41.4471435 39.8854263,41.6196494 C39.8854263,41.7959494 39.8508407,41.9484729 39.7816695,42.0779788 C39.7124983,42.2077376 39.6212725,42.3149847 39.5074908,42.39972 C39.3939598,42.4847082 39.263136,42.5476906 39.1150194,42.5891729 C38.9669027,42.6306553 38.8137737,42.6513965 38.6558829,42.6513965 C38.5536298,42.6513965 38.4516273,42.6422906 38.3496248,42.6238259 C38.2476223,42.6056141 38.1496298,42.5775376 38.0556471,42.5390906 C37.9619151,42.5011494 37.8739474,42.45132 37.7917439,42.3896024 C37.7092898,42.3281376 37.6386149,42.2527612 37.5792179,42.1629671 L37.9348481,41.8687965 C38.0105355,41.9985553 38.115796,42.0964435 38.2508804,42.1629671 C38.3857141,42.2294906 38.529069,42.2626259 38.6806943,42.2626259 C38.7694139,42.2626259 38.859136,42.2494729 38.9496099,42.2226612 C39.0400839,42.1961024 39.1215355,42.1574024 39.1939648,42.1058024 C39.266394,42.0542024 39.3255404,41.9904612 39.3719052,41.91382 C39.4177687,41.8374318 39.4408258,41.7491553 39.4408258,41.6494965 C39.4408258,41.5399729 39.4227811,41.4511906 39.3866918,41.3828965 C39.3503519,41.3151082 39.2944635,41.2556671 39.2187762,41.2058376 C39.1430888,41.1562612 39.0473519,41.1112376 38.9323171,41.0715259 C38.8170318,41.0315612 38.6819474,40.9852729 38.5273146,40.9319024 C38.4022551,40.8921906 38.2869697,40.8464082 38.1817092,40.7948082 C38.076198,40.7434612 37.9849722,40.6802259 37.9077811,40.6056082 C37.8303395,40.5307376 37.7694387,40.4411965 37.7250789,40.3362259 C37.6804685,40.2317612 37.6581633,40.1060494 37.6581633,39.9598494 C37.6581633,39.7906318 37.6909945,39.6429141 37.7571583,39.5164435 C37.8228208,39.3902259 37.9117911,39.2844965 38.0235677,39.2000141 C38.135595,39.1152788 38.2624089,39.0512847 38.4040094,39.0080318 C38.5456099,38.9650318 38.6934759,38.9435318 38.8483593,38.9435318 C39.0460988,38.9435318 39.2260442,38.9741376 39.3889474,39.0356024 C39.5521012,39.0970671 39.6977117,39.2043141 39.8260293,39.3568376 L39.4854362,39.6560671 Z" id="Fill-20" fill="#929DC5" fill-rule="nonzero"></path>
            <polygon id="Fill-22" fill="#929DC5" fill-rule="nonzero" points="41.8161553 39.0330982 42.230932 39.0330982 42.230932 40.5282335 44.097803 40.5282335 44.097803 39.0330982 44.5125797 39.0330982 44.5125797 42.5616276 44.097803 42.5616276 44.097803 40.9170041 42.230932 40.9170041 42.230932 42.5616276 41.8161553 42.5616276"></polygon>
            <polygon id="Fill-24" fill="#929DC5" fill-rule="nonzero" points="46.6259107 39.0330982 47.2431886 39.0330982 48.4283722 41.7992629 48.4381464 41.7992629 49.6333548 39.0330982 50.2358462 39.0330982 50.2358462 42.5616276 49.8210695 42.5616276 49.8210695 39.6012041 49.8110447 39.6012041 48.5569404 42.5616276 48.3048164 42.5616276 47.0507122 39.6012041 47.040938 39.6012041 47.040938 42.5616276 46.6259107 42.5616276"></polygon>
            <polygon id="Fill-26" fill="#929DC5" fill-rule="nonzero" points="52.3494278 39.0330982 54.5471176 39.0330982 54.5471176 39.4218688 52.7644551 39.4218688 52.7644551 40.5282335 54.4285742 40.5282335 54.4285742 40.9170041 52.7644551 40.9170041 52.7644551 42.17311 54.6358372 42.17311 54.6358372 42.5616276 52.3494278 42.5616276"></polygon>
            <path d="M56.9372087,40.5880541 L57.3076256,40.5880541 C57.4226603,40.5880541 57.541705,40.5845129 57.6652608,40.5781894 C57.788566,40.5716129 57.9023476,40.54986 58.0061045,40.5134365 C58.1098613,40.4770129 58.1953228,40.4193424 58.2627397,40.3411835 C58.3304072,40.2635306 58.3639903,40.1512247 58.3639903,40.0050247 C58.3639903,39.8785541 58.3394295,39.7773776 58.2898067,39.7007365 C58.2404345,39.6246012 58.1755238,39.5654129 58.0948241,39.5239306 C58.0141243,39.4824482 57.923901,39.4551306 57.8234022,39.4419776 C57.7229035,39.4285718 57.6214022,39.4219953 57.5196504,39.4219953 L56.9372087,39.4219953 L56.9372087,40.5880541 Z M56.5221814,39.0332247 L57.4158935,39.0332247 C57.5838092,39.0332247 57.750973,39.0430894 57.9171342,39.0630718 C58.0832955,39.0830541 58.2324146,39.1263071 58.3639903,39.1925776 C58.4958166,39.2591012 58.6028315,39.3562306 58.685035,39.4842188 C58.7674891,39.6119541 58.8085908,39.7857247 58.8085908,40.0050247 C58.8085908,40.2642894 58.7311491,40.4734718 58.5765164,40.6328247 C58.421633,40.7926835 58.2076032,40.8936071 57.934427,40.9371129 L58.9268836,42.5617541 L58.4183749,42.5617541 L57.4702782,40.9765718 L56.9372087,40.9765718 L56.9372087,42.5617541 L56.5221814,42.5617541 L56.5221814,39.0332247 Z" id="Fill-28" fill="#929DC5" fill-rule="nonzero"></path>
            <polygon id="Fill-30" fill="#929DC5" fill-rule="nonzero" points="60.7836295 39.0330982 62.9813194 39.0330982 62.9813194 39.4218688 61.1986568 39.4218688 61.1986568 40.5282335 62.8625253 40.5282335 62.8625253 40.9170041 61.1986568 40.9170041 61.1986568 42.17311 63.070039 42.17311 63.070039 42.5616276 60.7836295 42.5616276"></polygon>
            <polygon id="Fill-32" fill="#929DC5" fill-rule="nonzero" points="67.5731352 39.0330982 67.9879119 39.0330982 67.9879119 40.5580806 68.0473089 40.5580806 69.6372444 39.0330982 70.2347233 39.0330982 68.506696 40.6428159 70.3186811 42.5616276 69.711428 42.5616276 68.0473089 40.7672629 67.9879119 40.7672629 67.9879119 42.5616276 67.5731352 42.5616276"></polygon>
            <polygon id="Fill-34" fill="#929DC5" fill-rule="nonzero" points="71.9284156 39.0330982 72.4519615 39.0330982 74.4767233 41.9634218 74.4864975 41.9634218 74.4864975 39.0330982 74.9012742 39.0330982 74.9012742 42.5616276 74.3777283 42.5616276 72.3532171 39.6310512 72.3434429 39.6310512 72.3434429 42.5616276 71.9284156 42.5616276"></polygon>
            <g id="Fill-36-Clipped" transform="translate(0.000000, 0.252941)">
                <mask id="mask-4" fill="white">
                    <use xlink:href="#path-3"></use>
                </mask>
                <g id="path-3"></g>
                <polygon id="Fill-36" fill="#929DC5" fill-rule="nonzero" mask="url(#mask-4)" points="77.0148809 42.3087118 77.4296576 42.3087118 77.4296576 38.7801824 77.0148809 38.7801824"></polygon>
            </g>
            <g id="Fill-38-Clipped" transform="translate(0.000000, 0.252941)">
                <mask id="mask-6" fill="white">
                    <use xlink:href="#path-5"></use>
                </mask>
                <g id="path-3"></g>
                <polygon id="Fill-38" fill="#929DC5" fill-rule="nonzero" mask="url(#mask-6)" points="81.8886196 39.1689529 80.7332598 39.1689529 80.7332598 42.3087118 80.3184831 42.3087118 80.3184831 39.1689529 79.1628727 39.1689529 79.1628727 38.7801824 81.8886196 38.7801824"></polygon>
            </g>
            <g id="Fill-39-Clipped" transform="translate(0.000000, 0.252941)">
                <mask id="mask-8" fill="white">
                    <use xlink:href="#path-7"></use>
                </mask>
                <g id="path-3"></g>
                <polygon id="Fill-39" fill="#929DC5" fill-rule="nonzero" mask="url(#mask-8)" points="83.2173335 38.7801571 83.67647 38.7801571 84.4716883 41.7104806 84.4814625 41.7104806 85.3405891 38.7801571 85.804738 38.7801571 86.6588521 41.7104806 86.6688769 41.7104806 87.4788819 38.7801571 87.9132069 38.7801571 86.8864154 42.3086865 86.4370531 42.3086865 85.5726635 39.3184159 85.5628893 39.3184159 84.693738 42.3086865 84.2393633 42.3086865"></polygon>
            </g>
            <g id="Fill-40-Clipped" transform="translate(0.000000, 0.252941)">
                <mask id="mask-10" fill="white">
                    <use xlink:href="#path-9"></use>
                </mask>
                <g id="path-3"></g>
                <polygon id="Fill-40" fill="#929DC5" fill-rule="nonzero" mask="url(#mask-10)" points="89.6218613 38.7801571 91.8195511 38.7801571 91.8195511 39.1689276 90.0368886 39.1689276 90.0368886 40.2752924 91.7007571 40.2752924 91.7007571 40.6640629 90.0368886 40.6640629 90.0368886 41.9201688 91.9082707 41.9201688 91.9082707 42.3086865 89.6218613 42.3086865"></polygon>
            </g>
            <g id="Fill-41-Clipped" transform="translate(0.000000, 0.252941)">
                <mask id="mask-12" fill="white">
                    <use xlink:href="#path-11"></use>
                </mask>
                <g id="path-3"></g>
                <path d="M95.1178903,39.3183906 L95.1081161,39.3183906 L94.382069,41.0525553 L95.8093519,41.0525553 L95.1178903,39.3183906 Z M94.9304263,38.7801318 L95.3206422,38.7801318 L96.8068208,42.3086612 L96.322873,42.3086612 L95.9672427,41.4415788 L94.2194164,41.4415788 L93.8587737,42.3086612 L93.3896124,42.3086612 L94.9304263,38.7801318 Z" id="Fill-41" fill="#929DC5" fill-rule="nonzero" mask="url(#mask-12)"></path>
            </g>
            <g id="Fill-42-Clipped" transform="translate(0.000000, 0.252941)">
                <mask id="mask-14" fill="white">
                    <use xlink:href="#path-13"></use>
                </mask>
                <g id="path-3"></g>
                <path d="M98.930302,40.3351129 L99.3007189,40.3351129 C99.4157536,40.3351129 99.5350489,40.3315718 99.6583541,40.3252482 C99.7819099,40.3186718 99.8956916,40.2969188 99.9994484,40.2604953 C100.103205,40.2240718 100.188667,40.1664012 100.256084,40.0882424 C100.323751,40.0105894 100.357334,39.8982835 100.357334,39.7520835 C100.357334,39.6256129 100.332773,39.5244365 100.283151,39.4477953 C100.233778,39.37166 100.168868,39.3124718 100.088168,39.2709894 C100.007468,39.2295071 99.9172449,39.2021894 99.8167462,39.1890365 C99.7162474,39.1756306 99.6147462,39.1690541 99.5127437,39.1690541 L98.930302,39.1690541 L98.930302,40.3351129 Z M98.5155253,38.7802835 L99.4092375,38.7802835 C99.5769025,38.7802835 99.7440663,38.7901482 99.9104782,38.8101306 C100.076639,38.8301129 100.225759,38.8733659 100.357334,38.9396365 C100.48891,39.00616 100.595925,39.1032894 100.678379,39.2312776 C100.760833,39.3590129 100.801684,39.5327835 100.801684,39.7520835 C100.801684,40.0113482 100.724493,40.2205306 100.56961,40.3798835 C100.414977,40.5397424 100.200947,40.6406659 99.927771,40.6841718 L100.920228,42.3088129 L100.411719,42.3088129 L99.4633715,40.7236306 L98.930302,40.7236306 L98.930302,42.3088129 L98.5155253,42.3088129 L98.5155253,38.7802835 Z" id="Fill-42" fill="#929DC5" fill-rule="nonzero" mask="url(#mask-14)"></path>
            </g>
        </g>
    </g>
</svg>