<?xml version="1.0" encoding="UTF-8"?>
<svg width="175px" height="95px" viewBox="0 0 175 95" version="1.1" xmlns="http://www.w3.org/2000/svg" xmlns:xlink="http://www.w3.org/1999/xlink">
    <!-- Generator: Sketch 53.2 (72643) - https://sketchapp.com -->
    <title>logo/mustela</title>
    <desc>Created with Sketch.</desc>
    <g id="logo/mustela" stroke="none" stroke-width="1" fill="none" fill-rule="evenodd">
        <g id="mustela" transform="translate(32.000000, 33.000000)" fill="#929DC5" fill-rule="nonzero">
            <path d="M109.2365,2.59611966 C109.636,2.59611966 109.993,2.56811111 109.993,2.09419658 C109.993,1.71223932 109.64325,1.64159829 109.315,1.64159829 L108.67275,1.64159829 L108.67275,2.59611966 L109.2365,2.59611966 Z M108.67275,4.32893162 L108.202,4.32893162 L108.202,1.24551282 L109.38625,1.24551282 C110.12125,1.24551282 110.48475,1.51419658 110.48475,2.12220513 C110.48475,2.67419658 110.1355,2.91462393 109.67825,2.97113675 L110.5635,4.32893162 L110.03525,4.32893162 L109.2155,2.99220513 L108.67275,2.99220513 L108.67275,4.32893162 Z M109.2435,5.01526496 C110.4635,5.01526496 111.42675,4.0674359 111.42675,2.78003419 C111.42675,1.51419658 110.4635,0.55942735 109.2435,0.55942735 C108.00925,0.55942735 107.0465,1.51419658 107.0465,2.78003419 C107.0465,4.0674359 108.00925,5.01526496 109.2435,5.01526496 Z M106.50475,2.78003419 C106.50475,1.24551282 107.76,0.113769231 109.2435,0.113769231 C110.71325,0.113769231 111.9685,1.24551282 111.9685,2.78003419 C111.9685,4.32893162 110.71325,5.46067521 109.2435,5.46067521 C107.76,5.46067521 106.50475,4.32893162 106.50475,2.78003419 Z" id="Fill-4"></path>
            <polygon id="Fill-5" points="86.9505 19.1742051 90.6085 19.1742051 90.6085 0.419384615 86.9505 0.419384615"></polygon>
            <path d="M14.223,2.37849573 C17.313,-1.09158974 25.23825,-0.0406495726 25.23825,5.7541453 L25.23825,19.1742051 L21.4125,19.1742051 L21.4125,7.02841026 C21.444,4.71460684 19.7095,3.87905983 18.35325,3.87905983 C16.68225,3.87905983 14.7905,4.44220513 14.75875,6.78699145 L14.75875,19.1742051 L11.129,19.1742051 L11.129,6.77558974 C11.14225,5.95788889 11.036,5.06111966 10.384,4.45435043 C9.33325,3.50528205 7.6215,3.3882906 6.276,4.0552906 C5.07875,4.59612821 4.6235,5.70779487 4.6635,6.97363248 L4.66775,19.1742051 L0.97875,19.1742051 L0.97875,2.9195812 C0.885,2.10138462 0.4955,1.00458974 0.043,0.345273504 L4.331,0.365598291 C4.4775,0.431529915 4.69,1.5922735 4.81,2.01413675 C7.36925,-0.28008547 11.2355,0.141282051 13.0445,1.34193162 C13.55025,1.711 13.89025,1.90433333 14.223,2.37849573" id="Fill-6"></path>
            <path d="M68.36475,15.8744017 C66.41375,17.2473162 64.5805,16.8752735 64.5805,15.0410855 L64.5805,7.6728547 L68.36475,7.6728547 L68.36475,5.00510256 L64.5805,5.00510256 L64.5805,0.419384615 L60.9225,0.419384615 L60.9225,5.00510256 L58.9885,5.00510256 L58.9885,7.6728547 L60.9225,7.6728547 L60.9225,16.4581197 C61.01575,17.4210684 61.28675,18.4489573 62.15175,19.042094 C64.0275,20.044453 66.60825,19.9653846 68.32425,18.6856667 L68.36475,15.8744017" id="Fill-7"></path>
            <path d="M46.689,14.9679658 C48.28675,16.551812 53.50025,17.969094 54.989,15.6919744 C55.6445,14.5091709 54.17725,14.1222564 53.69875,14.0030342 C51.09075,13.2520085 47.92475,13.4103932 45.8895,11.2207692 C45.0645,10.2312991 45.0645,8.96546154 45.34375,7.71201709 C47.78225,2.25406838 56.265,5.00510256 57.19725,5.60146154 L55.667,8.45064957 C53.795,7.38111966 50.7675,6.71411966 49.3485,7.71201709 C49.05575,7.94947009 48.869,8.23971795 48.8165,8.56962393 C49.00225,9.53257265 50.0935,9.67732479 50.85125,9.94129915 C53.49875,10.7850256 57.3435,10.324 58.30125,13.6475983 C58.7805,15.3757009 58.1555,17.1955128 56.6255,18.3034615 C54.1235,20.0972479 50.42575,19.8863162 47.566,19.1342991 C46.3815,18.7124359 45.26375,18.1190513 44.33275,17.1427179 L46.689,14.9679658" id="Fill-8"></path>
            <path d="M38.98025,18.0838547 C36.97525,20.178547 32.6025,20.0536239 30.11975,18.5674359 C28.8165,17.6704188 28.03175,16.2588376 28.018,14.6499573 L27.9775,5.00510256 L31.63575,5.00510256 L31.63575,13.1650085 C31.63575,14.2070256 31.95625,15.1776581 32.84775,15.8501111 C34.2975,16.7077179 36.639,16.7468803 37.98275,15.6391795 C38.7275,14.993 38.927,14.0300513 38.98025,13.0539658 L38.98025,5.00510256 L42.56725,5.00510256 L42.56725,19.1742051 L39.48775,19.1742051 L38.98025,18.0838547" id="Fill-9"></path>
            <path d="M81.2835,10.2989658 C81.19125,9.66617094 80.939,9.03089744 80.62025,8.49005983 C79.5295,6.94735897 77.2275,6.69676923 75.56475,7.30353846 C74.288,7.7645641 73.51575,9.07080342 73.197,10.2709573 L81.2835,10.2989658 Z M72.917,13.0086068 C73.0535,15.8017778 75.198,17.0108547 77.3755,17.064641 C80.28525,17.0522479 81.883,14.4467094 81.883,14.4467094 L84.212,16.2065385 C81.3365,20.9293248 73.38975,21.0948974 70.283,16.4040855 C68.97925,14.0694615 68.91325,10.7721368 70.164,8.39835043 C72.381,4.42163248 76.9085,4.50739316 76.9085,4.50739316 C79.445,4.42163248 85.499,5.75513675 84.85775,13.0086068 L72.917,13.0086068 Z" id="Fill-10"></path>
            <path d="M103.3835,12.758265 C102.34325,13.1650085 99.74475,13.3439658 97.949,13.4624444 C97.1245,13.6215726 96.04675,13.5948034 95.71375,14.5309829 C95.634,15.190547 95.674,15.8501111 96.286,16.2588376 C98.015,17.2217863 100.46325,16.8393333 102.0595,15.8766325 C103.1635,15.2825043 103.45525,14.1693504 103.41525,13.0086068 L103.3835,12.758265 Z M103.57625,17.9210085 C101.1445,19.6786068 98.627,19.8600427 96.81825,19.701906 C95.221,19.517 93.57175,18.699547 92.84,17.1561026 C92.1485,15.902906 92.361,14.188188 93.0405,12.9880342 C93.92325,11.3828718 97.097,11.1625214 99.3985,10.9436581 C100.6355,10.8512051 101.7435,10.8512051 102.92425,10.2580684 C104.26675,9.28842735 103.32075,7.6728547 102.3255,7.35583761 C100.55575,6.81549573 97.70725,6.72477778 96.06125,9.6185812 L93.37275,7.96632479 C96.509,3.19148718 104.58225,3.59798291 106.51625,7.18481197 C107.288,8.71487179 107.0485,10.4950256 107.088,12.2759231 L107.07275,16.854453 C107.157,17.662735 107.1675,18.1049231 107.57775,19.1742051 L103.9935,19.1742051 L103.57625,17.9210085 Z" id="Fill-11"></path>
            <path d="M14.7025,28.3268034 C12.07875,27.7755556 26.98675,25.4082137 54.29525,25.3075812 C81.70575,25.2069487 95.926,27.8392564 92.873,28.3268034 C89.7265,28.8302137 18.053,29.0319744 14.7025,28.3268034" id="Fill-12"></path>
        </g>
    </g>
</svg>