<?xml version="1.0" encoding="UTF-8"?>
<svg width="175px" height="95px" viewBox="0 0 175 95" version="1.1" xmlns="http://www.w3.org/2000/svg" xmlns:xlink="http://www.w3.org/1999/xlink">
    <!-- Generator: Sketch 53.2 (72643) - https://sketchapp.com -->
    <title>logo/suez</title>
    <desc>Created with Sketch.</desc>
    <defs>
        <polygon id="path-1" points="0.160461781 0.0290133333 89.8123292 0.0290133333 89.8123292 22.7757621 0.160461781 22.7757621"></polygon>
    </defs>
    <g id="logo/suez" stroke="none" stroke-width="1" fill="none" fill-rule="evenodd">
        <g id="suez" transform="translate(16.000000, 32.000000)">
            <path d="M47.1108906,4.67675897 C44.1287756,1.66121026 40.1630124,0 35.944478,0 C30.9293168,0 26.16092,2.45366154 23.1935784,6.55704615 C23.1935784,6.55704615 15.1966268,16.6659282 14.799531,17.1746462 C14.4027599,17.6832 13.8215648,17.9477333 13.2486494,17.9477333 C12.1666201,17.9477333 11.2863856,17.0582974 11.2863856,15.9643897 C11.2863856,14.8713026 12.1666201,13.9818667 13.2486494,13.9818667 C13.4514183,13.9818667 13.6053213,14.0038564 13.7701015,14.0038564 C14.4577948,14.0038564 15.0152875,13.4098051 15.0152875,12.7240205 C15.0152875,12.1888821 14.6495242,11.3895385 13.405637,11.3895385 C10.7418805,11.3895385 8.74325141,13.4529641 8.74325141,15.9643897 C8.74325141,18.4756513 10.7644464,20.5185641 13.2486494,20.5195487 C14.5147779,20.5195487 15.7172672,19.9812923 16.5708771,19.0380308 L25.7886629,8.00196923 C28.2511116,4.8001641 31.9520902,2.96369231 35.944478,2.96369231 C39.3800225,2.96369231 42.6097136,4.31573333 45.039044,6.7713641 C47.4675626,9.22715897 48.8051229,12.4921436 48.8051229,15.9643897 C48.8051229,23.1328821 43.0344081,28.964759 35.9418805,28.964759 C33.9309132,28.964759 33.2701691,28.5937231 32.7774521,28.5937231 C31.9425118,28.5937231 31.2785209,29.2575179 31.2785209,30.0868923 C31.2785209,30.7062154 31.6411995,31.232 32.2332717,31.4743795 C32.7402751,31.6824615 34.704487,31.927959 35.944478,31.927959 C44.6520135,31.927959 51.7357745,24.7666872 51.7357745,15.9643897 C51.7357745,11.6996923 50.0930056,7.69165128 47.1108906,4.67675897 M35.9426922,23.6785231 C34.7376054,23.6785231 34.2241082,23.4238359 33.808018,23.4238359 C32.9998647,23.4238359 32.3426922,24.0886154 32.3426922,24.9056821 C32.3426922,25.5373128 32.7735558,26.1353026 33.3398151,26.3081026 C33.9057497,26.4804103 34.9264126,26.6422154 35.9435039,26.6422154 C41.7679549,26.6422154 46.5074543,21.8522256 46.5074543,15.9643897 C46.5074543,10.0768821 41.7687666,5.2862359 35.944478,5.28574359 C33.0956483,5.28574359 30.3346471,6.47515897 28.349655,8.55368205 L17.7158963,20.4964103 C16.5194138,21.7024 14.9329786,22.3660308 13.2486494,22.3660308 C9.75644645,22.3660308 6.91654566,19.4942359 6.91654566,15.9643897 C6.91654566,12.4348718 9.75823224,9.56291282 13.2518963,9.56291282 C14.0675175,9.56291282 14.3220744,9.71913846 14.6699797,9.71913846 C15.2777993,9.71913846 15.9060744,9.19450256 15.9060744,8.43388718 C15.9060744,7.82293333 15.4849515,7.27548718 14.9133348,7.15044103 C14.46023,7.05083077 13.7871477,6.99093333 13.2478377,6.99093333 C8.3534611,6.99093333 4.37211274,11.0165333 4.37211274,15.9643897 C4.37211274,20.9125744 8.35443517,24.9381744 13.2486494,24.9381744 C17.2689605,24.9381744 19.4929245,22.3351795 19.8478106,21.9636513 L30.2299346,10.8588308 C31.6814611,9.20073846 33.7640225,8.2496 35.944478,8.2496 C40.1526223,8.2496 43.575991,11.7111795 43.575991,15.9643897 C43.575991,20.2179282 40.1516483,23.6785231 35.9426922,23.6785231 M35.944478,13.5348513 C37.2693754,13.5348513 38.3476708,14.6254769 38.3476708,15.9643897 C38.3476708,17.3041231 37.2693754,18.3936 35.944478,18.3936 C35.7642751,18.3936 35.3858489,18.3266462 35.3785434,18.324841 C35.2559729,18.2967795 34.6966945,18.1812513 34.3007351,18.340759 C33.7653213,18.5603282 33.3868952,19.0936615 33.3868952,19.7146256 C33.3868952,20.3086769 33.8193822,20.9073231 34.2846629,21.0801231 C34.7497813,21.252759 35.428221,21.3559795 35.944478,21.3559795 C38.8855197,21.3559795 41.2783224,18.9376 41.2783224,15.9643897 C41.2783224,12.9911795 38.8855197,10.5723077 35.944478,10.5723077 C34.4781781,10.5723077 33.0609064,11.1937641 32.060699,12.2727385 C32.060699,12.2727385 22.6442029,22.0540718 20.4223495,23.9853949 C18.445637,25.7033846 16.057867,26.7849846 13.2478377,26.7849846 C10.3886178,26.7849846 7.70083427,25.6594051 5.6791522,23.6161641 C3.65795716,21.5719385 2.54443292,18.8547282 2.54443292,15.9643897 C2.54443292,9.99844103 7.34675986,5.14477949 13.2491364,5.14477949 C14.3892852,5.14477949 15.161885,5.35712821 15.4644961,5.37353846 C16.2015423,5.41357949 16.8020564,4.80049231 16.8020564,4.09140513 C16.8020564,3.47224615 16.3530101,2.92348718 15.7573664,2.81468718 C15.7573664,2.81468718 14.6060158,2.5726359 13.2465389,2.5726359 C5.94247576,2.5726359 0,8.58026667 0,15.9643897 C0,19.5410051 1.37765953,22.9037949 3.88020744,25.4336 C6.38194363,27.9635692 9.70904171,29.3571282 13.2478377,29.3571282 C16.6781871,29.3571282 19.9148591,28.0406974 22.3930552,25.6434872 L34.2401804,14.2780718 C34.7192604,13.8187487 35.195743,13.5348513 35.944478,13.5348513" id="Fill-1" fill="#929DC5" fill-rule="nonzero"></path>
            <g id="Group-5" transform="translate(54.060879, 3.866421)">
                <g id="Fill-3-Clipped">
                    <mask id="mask-2" fill="white">
                        <use xlink:href="#path-1"></use>
                    </mask>
                    <g id="path-1"></g>
                    <path d="M50.4977966,9.32460308 C51.3244573,6.25719795 53.9489263,4.01506462 57.0584821,4.01506462 C60.1680379,4.01506462 62.7925069,6.25719795 63.6196546,9.32460308 L50.4977966,9.32460308 Z M57.0618913,0.0290133333 C50.7380672,0.0290133333 45.7373547,5.12193641 45.7373547,11.4032903 C45.7373547,17.6830031 50.7387166,22.7757621 57.0618913,22.7757621 C60.9755418,22.7757621 64.1592893,21.1347364 66.4649127,18.3471262 L62.9441371,15.8115774 C61.3411427,17.6921928 59.402906,18.7608287 57.0601055,18.7608287 C53.7995689,18.7608287 51.0716861,16.2974851 50.3899995,13.0006646 L68.0393344,13.0006646 C68.1067076,12.5011364 68.1516771,11.9210338 68.1516771,11.4032903 C68.1516771,5.12521846 63.3866895,0.0290133333 57.0618913,0.0290133333 Z M37.6628023,13.5535262 C37.6753028,16.9110646 35.6627121,18.6439877 32.5789691,18.6439877 C29.4958755,18.6439877 27.4832848,16.9110646 27.495623,13.5535262 L27.495623,0.320951795 L22.8924933,0.320951795 L22.8924933,13.8646646 C22.8924933,18.8182646 26.4384325,22.7757621 32.5789691,22.7757621 C38.7208045,22.7757621 42.2660943,18.8182646 42.2660943,13.8646646 L42.2660943,0.320951795 L37.6628023,0.320951795 L37.6628023,13.5535262 Z M75.8830322,18.2086236 C75.0880289,18.2086236 74.443844,17.5574646 74.443844,16.7543467 C74.443844,16.134039 74.824543,15.5936492 75.3714832,15.394921 L86.1500537,11.404439 C88.2805069,10.5801518 89.7938868,8.49473641 89.7938868,6.05059282 C89.7938868,2.88669538 87.2562724,0.320951795 84.1265858,0.320951795 L72.3067346,0.320951795 L72.3067346,4.5963159 L84.0069375,4.5963159 C84.8014539,4.5963159 85.4459635,5.24796718 85.4459635,6.05059282 C85.4459635,6.67155692 85.0597448,7.20160821 84.5184866,7.41051077 L73.7397538,11.4009928 C71.6094629,12.22528 69.9764347,14.3106954 69.9764347,16.7543467 C69.9764347,19.9182441 72.633048,22.4833313 75.763384,22.4833313 L89.8123941,22.4833313 L89.8123941,18.2086236 L75.8830322,18.2086236 Z M16.2334268,11.4009928 L5.45485637,7.41051077 C4.9135982,7.20160821 4.52770417,6.67155692 4.52770417,6.05059282 C4.52770417,5.24796718 5.17123968,4.5963159 5.96640541,4.5963159 L17.6666083,4.5963159 L17.6666083,0.320951795 L5.84675716,0.320951795 C2.7164212,0.320951795 0.179456144,2.88669538 0.179456144,6.05059282 C0.179456144,8.49473641 1.6921867,10.5801518 3.82361398,11.404439 L14.6018598,15.394921 C15.1486377,15.5936492 15.5293366,16.134039 15.5293366,16.7543467 C15.5293366,17.5574646 14.8853141,18.2086236 14.0901484,18.2086236 L0.160461781,18.2086236 L0.160461781,22.4833313 L14.2102837,22.4833313 C17.3402949,22.4833313 19.9967459,19.9182441 19.9967459,16.7543467 C19.9967459,14.3106954 18.36388,12.22528 16.2334268,11.4009928 Z" id="Fill-3" fill="#929DC5" fill-rule="nonzero" mask="url(#mask-2)"></path>
                </g>
            </g>
        </g>
    </g>
</svg>