<?xml version="1.0" encoding="UTF-8"?>
<svg width="120px" height="120px" viewBox="0 0 120 120" version="1.1" xmlns="http://www.w3.org/2000/svg" xmlns:xlink="http://www.w3.org/1999/xlink">
    <!-- Generator: Sketch 52.2 (67145) - http://www.bohemiancoding.com/sketch -->
    <title>Illustrations/enterprise</title>
    <desc>Created with Sketch.</desc>
    <g id="Illustrations/enterprise" stroke="none" stroke-width="1" fill="none" fill-rule="evenodd">
        <path d="M38,10 L104,10 C107.313708,10 110,12.6862915 110,16 L110,85 C110,88.3137085 107.313708,91 104,91 L38,91 C34.6862915,91 32,88.3137085 32,85 L32,16 C32,12.6862915 34.6862915,10 38,10 Z" id="Rectangle" fill="#1FDB84" opacity="0.100000001"></path>
        <g id="002-building" transform="translate(16.000000, 28.000000)" fill="#031D5B" fill-rule="nonzero">
            <path d="M48,69.5000381 C48,68.782492 47.4311465,68.2000762 46.7273134,68.2000762 L42.9091045,68.2000762 L42.9091045,51.2999619 C42.9091045,50.5824158 42.340251,50 41.6364179,50 L34,50 C33.2961669,50 32.7273134,50.5824158 32.7273134,51.2999619 L32.7273134,68.2000762 L28.9091045,68.2000762 C28.2052713,68.2000762 27.6364179,68.782492 27.6364179,69.5000381 L27.6364179,73.4000762 L21.2726866,73.4000762 C20.5688535,73.4000762 20,73.982492 20,74.7000381 C20,75.4175842 20.5688535,76 21.2726866,76 L28.9091045,76 C29.6129376,76 30.1817911,75.4175842 30.1817911,74.7000381 L30.1817911,70.8 L46.7273134,70.8 C47.4309974,70.8001523 48,70.2177365 48,69.5000381 Z M40.3635821,59.1000381 L39.0908955,59.1000381 C38.3870624,59.1000381 37.8182089,59.6824539 37.8182089,60.4 C37.8182089,61.1175461 38.3870624,61.6999619 39.0908955,61.6999619 L40.3635821,61.6999619 L40.3635821,68.2000762 L35.2726866,68.2000762 L35.2726866,52.5999238 L40.3635821,52.5999238 L40.3635821,59.1000381 Z" id="Shape"></path>
            <path d="M53,60.8000422 C53,61.4623885 53.5586969,62 54.2499634,62 L61.7500366,62 C62.4413031,62 63,61.4623885 63,60.8000422 L63,51.1999578 C63,50.5376115 62.4413031,50 61.7500366,50 L54.2499634,50 C53.5586969,50 53,50.5376115 53,51.1999578 L53,60.8000422 Z M55.5000732,52.4000563 L60.5000732,52.4000563 L60.5000732,54.8001125 L55.5000732,54.8001125 L55.5000732,52.4000563 Z M55.5000732,57.2000281 L60.5000732,57.2000281 L60.5000732,59.6000844 L55.5000732,59.6000844 L55.5000732,57.2000281 Z" id="Shape"></path>
            <path d="M73.4285069,68.5554884 L73.4285069,13.279952 C73.4285069,12.5734509 72.8538496,12 72.1428356,12 C71.4318216,12 70.8571644,12.5734509 70.8571644,13.279952 L70.8571644,67.5084867 C69.9095977,66.426835 68.5274974,65.759934 67,65.759934 C65.0946211,65.759934 63.4037969,66.7865356 62.5180051,68.3775881 C62.3007383,68.339188 62.079554,68.319988 61.8571644,68.319988 C59.7306012,68.319988 58,70.0428907 58,72.159994 C58,74.2770973 59.7306012,76 61.8571644,76 L72.1428356,76 C74.2693988,76 76,74.2770973 76,72.159994 C76,70.4934914 74.92135,69.0866392 73.4285069,68.5554884 Z M72.1428356,73.439946 L61.8570137,73.439946 C61.1473557,73.439946 60.5713425,72.8652951 60.5713425,72.159994 C60.5713425,71.4546929 61.1473557,70.880042 61.8570137,70.880042 C62.1026066,70.880042 62.3378032,70.9503921 62.5538647,71.0886923 C62.9049269,71.3151927 63.3459394,71.3549427 63.7342173,71.1987925 C64.1224951,71.0426423 64.407865,70.7072417 64.5042941,70.3014911 C64.7756516,69.1353893 65.8003616,68.319988 66.9998493,68.319988 C68.1994877,68.319988 69.2241977,69.1353893 69.4954046,70.3014911 C69.5918337,70.7072417 69.8772036,71.0426423 70.2654814,71.1987925 C70.6537592,71.3549427 71.0934157,71.3151927 71.445834,71.0886923 C72.2828085,70.5510915 73.4283562,71.2103425 73.4283562,72.159994 C73.4285069,72.8652951 72.8524936,73.439946 72.1428356,73.439946 Z" id="Shape"></path>
            <path d="M74.7333828,2.53338281 L64.6,2.53338281 C64.6,1.83424219 64.0338594,1.26676563 63.3333828,1.26676563 C63.3333828,0.567625 62.7672422,0.0001484375 62.0667656,0.0001484375 L57,0.0001484375 C56.2995234,0.0001484375 55.7333828,0.567625 55.7333828,1.26676563 L55.7333828,2.53338281 L53.2,2.53338281 L53.2,1.26661719 C53.2,0.567476563 52.6338594,0 51.9333828,0 L46.8679531,0 C46.1674766,0 45.6013359,0.567476563 45.6013359,1.26661719 L45.6013359,2.53323438 L20.2666172,2.53323438 L20.2666172,1.26661719 C20.2666172,0.567476563 19.7004766,0 19,0 L13.9333828,0 C13.2329063,0 12.6667656,0.567476563 12.6667656,1.26661719 L12.6667656,2.53323438 L1.26676563,2.53323438 C0.566140625,2.53338281 0,3.10085938 0,3.8 C0,4.49914063 0.566140625,5.06661719 1.26661719,5.06661719 L13.9332344,5.06661719 C14.6337109,5.06661719 15.1998516,4.49914063 15.1998516,3.8 L15.1998516,2.53338281 L17.7332344,2.53338281 L17.7332344,3.8 C17.7332344,4.49914063 18.299375,5.06661719 18.9998516,5.06661719 L46.8678047,5.06661719 C47.5682813,5.06661719 48.1344219,4.49914063 48.1344219,3.8 L48.1344219,2.53338281 L50.6664688,2.53338281 L50.6664688,3.8 C50.6664688,4.49914063 51.2326094,5.06661719 51.9330859,5.06661719 L57,5.06661719 C57.7004766,5.06661719 58.2666172,4.49914063 58.2666172,3.8 L58.2666172,2.53338281 L59.5332344,2.53338281 C59.5332344,3.23252344 60.099375,3.8 60.7998516,3.8 C60.7998516,4.49914063 61.3659922,5.06661719 62.0664688,5.06661719 L73.4664688,5.06661719 L73.4664688,7.6 L3.8,7.6 C3.09952344,7.6 2.53338281,8.16747656 2.53338281,8.86661719 L2.53338281,68.6330469 C1.06266406,69.1586641 0,70.5508594 0,72.2 C0,74.2950469 1.70495313,76 3.8,76 L13.9333828,76 C16.0284297,76 17.7333828,74.2950469 17.7333828,72.2 C17.7333828,70.1049531 16.0284297,68.4 13.9333828,68.4 C13.7142891,68.4 13.4963828,68.419 13.2823359,68.457 C12.4096719,66.8825234 10.7439063,65.8666172 8.86676563,65.8666172 C7.36190625,65.8666172 6.00028906,66.5265703 5.06676563,67.5969531 L5.06676563,10.1333828 L74.7333828,10.1333828 C75.4338594,10.1333828 76,9.56590625 76,8.86676563 L76,3.8 C76,3.10085938 75.4338594,2.53338281 74.7333828,2.53338281 Z M5.64938281,71.2488125 C6.03190625,71.0942891 6.31304688,70.7623828 6.40819531,70.3608594 C6.67538281,69.2069062 7.68505469,68.4 8.86676563,68.4 C10.0484766,68.4 11.0581484,69.2069062 11.3253359,70.3608594 C11.4203359,70.7623828 11.7014766,71.0942891 12.0841484,71.2488125 C12.4666719,71.4033359 12.9011484,71.364 13.2470078,71.1398594 C14.0741016,70.6078594 15.2001484,71.2602422 15.2001484,72.2 C15.2001484,72.8979531 14.6326719,73.4666172 13.9335313,73.4666172 L3.8,73.4666172 C3.10085937,73.4666172 2.53338281,72.8979531 2.53338281,72.2 C2.53338281,71.5020469 3.10085937,70.9333828 3.8,70.9333828 C4.04195313,70.9333828 4.27366406,71.003 4.48652344,71.1398594 C4.83238281,71.364 5.26685938,71.4033359 5.64938281,71.2488125 Z" id="Shape"></path>
            <path d="M12,43.8000422 C12,44.4623885 12.5586969,45 13.2499634,45 L20.7500366,45 C21.4413031,45 22,44.4623885 22,43.8000422 L22,34.1999578 C22,33.5376115 21.4413031,33 20.7500366,33 L13.2499634,33 C12.5586969,33 12,33.5376115 12,34.1999578 L12,43.8000422 Z M14.5000732,35.3999156 L19.5000732,35.3999156 L19.5000732,37.7999719 L14.5000732,37.7999719 L14.5000732,35.3999156 Z M14.5000732,40.2000281 L19.5000732,40.2000281 L19.5000732,42.6000844 L14.5000732,42.6000844 L14.5000732,40.2000281 Z" id="Shape"></path>
            <path d="M34.2499634,27 L41.7500366,27 C42.4413031,27 43,26.4623885 43,25.8000422 L43,16.1999578 C43,15.5376115 42.4413031,15 41.7500366,15 L34.2499634,15 C33.5586969,15 33,15.5376115 33,16.1999578 L33,25.8000422 C33,26.4623885 33.5586969,27 34.2499634,27 Z M35.4999268,17.4000563 L40.4999268,17.4000563 L40.4999268,19.8001125 L35.4999268,19.8001125 L35.4999268,17.4000563 Z M35.4999268,22.2000281 L40.4999268,22.2000281 L40.4999268,24.6000844 L35.4999268,24.6000844 L35.4999268,22.2000281 Z" id="Shape"></path>
            <path d="M54.7222638,73 L34.2777362,73 C33.5711105,73 33,73.672038 33,74.5 C33,75.327962 33.5711105,76 34.2777362,76 L54.7222638,76 C55.4288895,76 56,75.327962 56,74.5 C56.0001497,73.672038 55.4288895,73 54.7222638,73 Z" id="Shape"></path>
            <path d="M53,43.8000422 C53,44.4623885 53.5586969,45 54.2499634,45 L61.7500366,45 C62.4413031,45 63,44.4623885 63,43.8000422 L63,34.1999578 C63,33.5376115 62.4413031,33 61.7500366,33 L54.2499634,33 C53.5586969,33 53,33.5376115 53,34.1999578 L53,43.8000422 Z M55.5000732,35.3999156 L60.5000732,35.3999156 L60.5000732,37.7999719 L55.5000732,37.7999719 L55.5000732,35.3999156 Z M55.5000732,40.2000281 L60.5000732,40.2000281 L60.5000732,42.6000844 L55.5000732,42.6000844 L55.5000732,40.2000281 Z" id="Shape"></path>
            <path d="M13.2499634,27 L20.7500366,27 C21.4413031,27 22,26.4623885 22,25.8000422 L22,16.1999578 C22,15.5376115 21.4413031,15 20.7500366,15 L13.2499634,15 C12.5586969,15 12,15.5376115 12,16.1999578 L12,25.8000422 C11.9998535,26.4623885 12.5586969,27 13.2499634,27 Z M14.4999268,17.4000563 L19.4999268,17.4000563 L19.4999268,19.8001125 L14.4999268,19.8001125 L14.4999268,17.4000563 Z M14.4999268,22.2000281 L19.4999268,22.2000281 L19.4999268,24.6000844 L14.4999268,24.6000844 L14.4999268,22.2000281 Z" id="Shape"></path>
            <path d="M12,60.8000422 C12,61.4623885 12.5586969,62 13.2499634,62 L20.7500366,62 C21.4413031,62 22,61.4623885 22,60.8000422 L22,51.1999578 C22,50.5376115 21.4413031,50 20.7500366,50 L13.2499634,50 C12.5586969,50 12,50.5376115 12,51.1999578 L12,60.8000422 Z M14.5000732,52.4000563 L19.5000732,52.4000563 L19.5000732,54.8001125 L14.5000732,54.8001125 L14.5000732,52.4000563 Z M14.5000732,57.2000281 L19.5000732,57.2000281 L19.5000732,59.6000844 L14.5000732,59.6000844 L14.5000732,57.2000281 Z" id="Shape"></path>
            <path d="M54.2499634,27 L61.7500366,27 C62.4413031,27 63,26.4623885 63,25.8000422 L63,16.1999578 C63,15.5376115 62.4413031,15 61.7500366,15 L54.2499634,15 C53.5586969,15 53,15.5376115 53,16.1999578 L53,25.8000422 C53,26.4623885 53.5586969,27 54.2499634,27 Z M55.5000732,17.4000563 L60.5000732,17.4000563 L60.5000732,19.8001125 L55.5000732,19.8001125 L55.5000732,17.4000563 Z M55.5000732,22.2000281 L60.5000732,22.2000281 L60.5000732,24.6000844 L55.5000732,24.6000844 L55.5000732,22.2000281 Z" id="Shape"></path>
            <path d="M33,43.8000422 C33,44.4623885 33.5586969,45 34.2499634,45 L41.7500366,45 C42.4413031,45 43,44.4623885 43,43.8000422 L43,34.1999578 C43,33.5376115 42.4413031,33 41.7500366,33 L34.2499634,33 C33.5586969,33 33,33.5376115 33,34.1999578 L33,43.8000422 Z M35.4999268,35.3999156 L40.4999268,35.3999156 L40.4999268,37.7999719 L35.4999268,37.7999719 L35.4999268,35.3999156 Z M35.4999268,40.2000281 L40.4999268,40.2000281 L40.4999268,42.6000844 L35.4999268,42.6000844 L35.4999268,40.2000281 Z" id="Shape"></path>
        </g>
    </g>
</svg>