<?xml version="1.0" encoding="UTF-8"?>
<svg width="120px" height="120px" viewBox="0 0 120 120" version="1.1" xmlns="http://www.w3.org/2000/svg" xmlns:xlink="http://www.w3.org/1999/xlink">
    <!-- Generator: Sketch 52.2 (67145) - http://www.bohemiancoding.com/sketch -->
    <title>Illustrations/influencer</title>
    <desc>Created with Sketch.</desc>
    <g id="Illustrations/influencer" stroke="none" stroke-width="1" fill="none" fill-rule="evenodd">
        <path d="M38,10 L104,10 C107.313708,10 110,12.6862915 110,16 L110,85 C110,88.3137085 107.313708,91 104,91 L38,91 C34.6862915,91 32,88.3137085 32,85 L32,16 C32,12.6862915 34.6862915,10 38,10 Z" id="Rectangle" fill="#1FDB84" opacity="0.100000001"></path>
        <g id="icon" transform="translate(10.000000, 24.000000)" fill="#031D5B" fill-rule="nonzero">
            <path d="M59.6068219,63 L54.3931781,63 C53.6237723,63 53,63.6716 53,64.5 C53,65.3286 53.6237723,66 54.3931781,66 L59.6068219,66 C60.3762277,66 61,65.3286 61,64.5 C61,63.6716 60.3762277,63 59.6068219,63 Z" id="Shape"></path>
            <path d="M91.8956427,47.8761882 L84.0434594,44.8512844 L80.0399821,40.8528351 C79.7829275,40.5961032 79.4516596,40.4570802 79.113278,40.4353818 L79.113278,37.253789 C81.0001399,35.2444832 82.3432841,32.7000155 82.8852715,29.8335288 C83.2217304,29.8486985 83.5614579,29.8216235 83.896571,29.7532641 C85.8151562,29.3609656 87.2077118,27.5830449 87.2077118,25.526118 L87.2077118,24.4759562 C87.2077118,23.2860032 86.7245567,22.1937888 85.9378195,21.4128402 C87.2111725,14.4962506 86.1623818,8.85967172 82.8912316,5.08703885 C79.7271714,1.43806738 74.6295296,-0.30605764 68.1500989,0.0439962977 C62.1638209,0.367167322 58.2993493,3.11805746 57.0750232,4.12443853 C56.4047969,4.20393514 55.2631435,4.43896861 54.1076473,5.13139566 C52.5061026,6.09111567 50.5971305,8.10714216 50.5971305,12.2611284 C50.5971305,15.8849451 51.1769935,18.910425 51.5968943,20.626899 C50.1895345,21.3116452 49.2480262,22.7955821 49.2480262,24.4920859 L49.2480262,25.525926 C49.2480262,27.5828529 50.6405818,29.3607736 52.559167,29.7530721 C52.8942801,29.8216235 53.2341998,29.8485064 53.5704665,29.8333368 C54.1124539,32.6998235 55.4557903,35.2442912 57.34246,37.253597 L57.34246,40.4351898 C57.0040784,40.4568881 56.6726182,40.5959112 56.4157558,40.852643 L52.4122786,44.8510924 L44.5600953,47.8759962 C43.8808327,48.1375286 43.2319475,48.4768293 42.6317047,48.8841055 C41.9730142,49.3311299 41.8019008,50.226715 42.2492951,50.8845783 C42.5282676,51.2947347 42.9818143,51.5155587 43.4432438,51.5155587 C43.7222163,51.5155587 44.0040728,51.4347179 44.2522834,51.2665077 C44.6708383,50.9825089 45.123616,50.7459393 45.597927,50.5631354 L52.8852438,47.7557912 L58.4570043,56.1031278 C59.1476104,57.137928 60.2546566,57.8017439 61.4937869,57.9242532 C61.6316389,57.9378867 61.769491,57.9446074 61.9063817,57.9446074 C62.6237122,57.9446074 63.3197017,57.756235 63.93571,57.4081013 L62.7400309,84.496093 C62.7048469,85.2906751 63.321432,85.963324 64.1172055,85.9982718 C64.1387389,85.9992319 64.1602723,85.999616 64.1818057,85.999616 C64.9489321,85.999616 65.5872429,85.3957105 65.6212733,84.6228267 L66.7310111,59.4794298 L69.7245346,59.4794298 L70.8342724,84.6228267 C70.8683029,85.3959025 71.5066136,85.999616 72.27374,85.999616 C72.2952734,85.999616 72.3168068,85.9992319 72.3383402,85.9982718 C73.1339214,85.963324 73.7505065,85.2906751 73.7155148,84.496093 L72.5198358,57.4081013 C73.1358441,57.756235 73.8316412,57.9446074 74.549164,57.9446074 C74.6860547,57.9446074 74.8239068,57.9378867 74.9617588,57.9242532 C76.2008892,57.8017439 77.307743,57.137928 77.9985414,56.1031278 L83.5703019,47.7557912 L90.8576187,50.5631354 C91.8796849,50.9567781 92.7594771,51.5848782 93.4512367,52.3685151 L88.4656838,57.3478067 C86.6643786,59.1468497 85.6724976,61.5386609 85.6724976,64.0825526 L85.6724976,84.5596519 C85.6724976,85.3550021 86.3181143,85.999808 87.1144646,85.999808 C87.9108149,85.999808 88.5564316,85.3550021 88.5564316,84.5596519 L88.5564316,64.0825526 C88.5564316,62.3080883 89.2483835,60.6394275 90.5048174,59.3845715 L94.8803222,55.0145619 C95.0560499,55.6584077 95.1381459,56.335281 95.1104601,57.027324 L93.9936086,84.5012776 C93.9613085,85.2960517 94.5802008,85.9663964 95.375782,85.9988479 C95.3957773,85.999616 95.4155803,86 95.4353833,86 C96.2046247,86 96.8437045,85.3930222 96.8750432,84.6184103 L97.9922793,57.1436886 C98.1558944,53.0682389 95.7058963,49.3439953 91.8956427,47.8761882 Z M56.3932612,29.2396084 C56.1388982,27.8568666 54.8568934,26.8518297 53.4731818,26.9541768 C53.3637846,26.9620496 53.2511189,26.9543688 53.1376842,26.9313263 C52.5643581,26.8141936 52.1319602,26.2099041 52.1319602,25.526118 L52.1319602,24.4918939 C52.1319602,23.8238535 52.57897,23.2220603 53.1494122,23.1220174 C53.6308369,23.0375283 54.0918818,23.2139954 54.3835437,23.5940046 C54.6482888,23.9386819 55.0014746,24.1852367 55.4046486,24.3065938 C55.9952783,24.4847891 56.6464706,24.3801378 57.1471215,24.0272035 C58.0488316,23.3914226 58.8444128,22.6146985 59.5117552,21.7183453 C59.9870275,21.0800681 59.853982,20.1779544 59.2150945,19.7034709 C58.5758224,19.2287955 57.6727666,19.3614819 57.1974942,19.9997591 C56.8646882,20.4467835 56.4886232,20.8525235 56.0746826,21.2116024 C55.6174829,20.8210321 55.0833783,20.5387615 54.5110135,20.377656 C54.1405241,18.9601584 53.4810646,15.9233493 53.4810646,12.2607443 C53.4810646,10.0550013 54.1618653,8.5052013 55.5044327,7.65454911 C56.5520698,6.99073317 57.6608463,6.9642343 57.6600772,6.96404228 C58.028644,6.96404228 58.3874054,6.81906656 58.6550345,6.56617516 C58.6902185,6.53314758 62.2349579,3.2476715 68.3054468,2.91989198 C73.8622109,2.62033952 78.1519667,4.02132335 80.7107852,6.97229917 C83.2897913,9.94670153 84.1486268,14.5131484 83.2169239,20.2286479 C82.830669,20.2150144 82.4078842,20.2442015 81.9870221,20.3142891 L80.6323422,17.064913 C80.3558691,16.4020571 79.6318093,16.0441304 78.9362045,16.225206 C78.8021977,16.2601538 65.4859206,19.6316552 59.9024321,12.6889507 C59.403896,12.0689155 58.4964181,11.9698328 57.8752187,12.4679348 C57.2544039,12.9660368 57.1551965,13.872375 57.6541171,14.4926022 C63.355847,21.5823946 74.6693279,20.0400834 78.4353612,19.2879379 L79.4829984,21.8005302 C79.9334688,22.8806473 81.0858889,23.4705352 82.2217744,23.2030502 C82.6880104,23.0934063 83.1334821,23.0909101 83.3007502,23.1239376 C83.8838817,23.2399182 84.3235855,23.8207812 84.3235855,24.4755721 L84.3235855,25.525926 C84.3235855,26.2099041 83.8911877,26.8140016 83.3178616,26.9311343 C83.2046191,26.9543688 83.0913766,26.9620496 82.9823639,26.9539847 C81.5988446,26.8533658 80.3168398,27.8564825 80.0622846,29.2396084 C79.0133016,34.9433946 74.0362083,39.0833633 68.2277729,39.0833633 C62.4193375,39.0833633 57.4422441,34.9433946 56.3932612,29.2396084 Z M62.7900191,54.6969595 C62.4243363,55.062183 61.9992444,55.080041 61.7781428,55.0581506 C61.5572334,55.0364522 61.1436773,54.9354493 60.856822,54.5057067 L55.243725,46.0967314 L57.5010763,43.842215 L66.1182712,51.3728872 L62.7900191,54.6969595 Z M66.8580965,56.5993096 L66.9453835,54.6199591 L68.2275806,53.3393723 L69.5097777,54.6199591 L69.5970647,56.5993096 L66.8580965,56.5993096 Z M68.2277729,49.3889282 L60.226394,42.3964904 L60.226394,39.6402236 C62.5527675,41.1178238 65.3051941,41.9636755 68.2277729,41.9636755 C71.1503516,41.9636755 73.9029705,41.1178238 76.229344,39.6402236 L76.229344,42.3964904 L68.2277729,49.3889282 Z M75.5991083,54.5057067 C75.3120607,54.9356413 74.8985045,55.0364522 74.6777875,55.0581506 C74.4564936,55.080041 74.0314017,55.062183 73.6657189,54.6967674 L70.3374667,51.3726952 L78.9546616,43.842023 L81.2120129,46.0965394 L75.5991083,54.5057067 Z" id="Shape"></path>
            <path d="M45.3285928,55.4236389 L38.3491481,52.3542128 L34.5339139,48.5101815 C34.2783453,48.2524918 33.9497842,48.114238 33.6153152,48.0927319 L33.6153152,45.8270979 C36.8759596,43.6682266 39.2620294,40.2347322 40.0287354,36.1433803 C40.4041793,36.1602779 40.7832442,36.1239863 41.1567823,36.0350815 C42.9857848,35.599006 44.3131791,33.8330059 44.3131791,31.8360067 L44.3131791,30.786046 C44.3131791,29.3270845 43.59469,28.0146336 42.4815084,27.2446369 C42.808926,25.9377545 42.9758746,24.6007252 42.9758746,23.254863 C42.9758746,17.288444 39.7748819,12.033264 34.9499515,9.01587507 C34.8984947,4.0362425 30.6799919,0 25.4994379,0 C20.318884,0 16.1003812,4.0362425 16.0489244,9.01587507 C11.2241845,12.033264 8.02319184,17.288636 8.02319184,23.254863 C8.02319184,24.5966928 8.18899701,25.9298818 8.51450877,27.2331157 C7.40189891,27.9992721 6.68588738,29.3178676 6.68588738,30.8017916 L6.68588738,31.8360067 C6.68588738,33.8330059 8.01328165,35.599006 9.8422842,36.0350815 C10.2158223,36.1241783 10.5946966,36.1602779 10.9703311,36.1433803 C11.7370371,40.2347322 14.1232975,43.6682266 17.3839419,45.8270979 L17.3839419,48.0927319 C17.0494728,48.114238 16.7209118,48.2524918 16.4653431,48.5101815 L12.650109,52.3542128 L5.67085481,55.4236389 C2.11976546,56.9855226 -0.155767564,60.6553926 0.0083223801,64.5558776 L0.852404103,84.6205344 C0.884993395,85.3943716 1.51791175,85.999808 2.27947205,85.999808 C2.29986418,85.999808 2.32044689,85.9994239 2.3410296,85.9984638 C3.12984294,85.9648605 3.741988,85.2933695 3.70863639,84.4986023 L2.86436408,64.4337534 C2.8100486,63.1408885 3.14356474,61.8864274 3.7705751,60.8067037 L7.5221553,65.34258 C8.70775756,66.776003 9.3604963,68.5928881 9.3604963,70.4585462 L9.3604963,84.5596644 C9.3604963,85.3550077 10.0004661,85.999808 10.7898512,85.999808 C11.5792363,85.999808 12.2192061,85.3550077 12.2192061,84.5596644 L12.2192061,70.4585462 C12.2192061,67.9204371 11.3309097,65.4487666 9.71821619,63.4988122 L5.72993482,58.6766353 C6.0689778,58.4412198 6.42936582,58.232687 6.81452933,58.0633261 L12.8971015,55.3881154 L17.1954576,62.4177444 C17.6198807,63.1118936 18.3215987,63.5825325 19.120894,63.7092651 C19.2645918,63.7321154 19.4086708,63.7432525 19.552178,63.7432525 C20.2056791,63.7432525 20.8422185,63.5099493 21.346876,63.075986 L24.0706548,60.7343125 L24.0706548,84.5594723 C24.0706548,85.3548157 24.7106246,85.999616 25.5000097,85.999616 C26.2893948,85.999616 26.9293646,85.3548157 26.9293646,84.5594723 L26.9293646,60.7346965 L29.6529527,63.07637 C30.1576103,63.5103333 30.7941497,63.7436366 31.4476508,63.7436366 C31.5909674,63.7436366 31.735237,63.7323074 31.8789348,63.7096492 C32.6782301,63.5829165 33.379948,63.1122776 33.8043712,62.4181284 L38.1027273,55.3883074 L44.1852995,58.0635181 C44.5702724,58.232879 44.930851,58.4414118 45.269894,58.6768273 L41.2816126,63.4990042 C39.6689191,65.4487666 38.7806227,67.9206291 38.7806227,70.4587382 L38.7806227,84.5598564 C38.7806227,85.3551997 39.4205925,86 40.2099776,86 C40.9993626,86 41.6393325,85.3551997 41.6393325,84.5598564 L41.6393325,70.4587382 C41.6393325,68.5930802 42.2922618,66.776195 43.4776735,65.342772 L47.2292537,60.8068957 C47.8562641,61.8866194 48.1897802,63.1410805 48.1354647,64.4339454 L47.291383,84.4987943 C47.2580314,85.2933695 47.8701764,85.9648605 48.6589898,85.9986559 C48.6795725,85.999616 48.6999646,86 48.7205473,86 C49.4821076,86 50.115026,85.3947556 50.1476153,84.6207265 L50.991697,64.5560696 C51.1555964,60.6555846 48.8798728,56.9855226 45.3285928,55.4236389 Z M25.4998191,2.88028722 C28.540724,2.88028722 31.1063208,4.83485014 31.8650224,7.48317823 C29.8917503,6.7327674 27.7446686,6.32011825 25.4998191,6.32011825 C23.2549696,6.32011825 21.1078879,6.7327674 19.1346158,7.48317823 C19.8933174,4.83485014 22.4587236,2.88028722 25.4998191,2.88028722 Z M13.7686269,35.5498491 C13.5166792,34.1667351 12.243791,33.162091 10.8742784,33.2642451 C10.7528786,33.272886 10.6274765,33.262517 10.5009309,33.2321779 C9.95587027,33.102181 9.5447878,32.5019291 9.5447878,31.8360067 L9.5447878,30.8017916 C9.5447878,30.133757 9.98788782,29.531969 10.5533406,29.431927 C11.0305546,29.3474386 11.4873764,29.5240962 11.7762967,29.903718 C12.0387263,30.2485844 12.3888229,30.495137 12.7888517,30.6168771 C13.3741249,30.7950709 14.0200027,30.6904205 14.5158936,30.3372973 C15.3961857,29.7113148 16.1745171,28.9482307 16.8293522,28.0695511 C17.3033263,27.4335837 17.1758278,26.5307097 16.5446247,26.0533501 C15.913231,25.5757984 15.0173113,25.7042593 14.5433372,26.3402267 C14.2191595,26.77515 13.8541976,27.1705175 13.4528347,27.5217205 C12.8412614,26.9948199 12.0913265,26.6649311 11.2958429,26.5648891 C11.0219785,25.4801729 10.8819017,24.3708783 10.8819017,23.255055 C10.8819017,15.5055462 17.4394009,9.20059749 25.4998191,9.20059749 C33.5600468,9.20059749 40.117546,15.5053542 40.117546,23.255055 C40.117546,24.3687661 39.9782315,25.4757565 39.70532,26.5585524 C39.3291138,26.5886994 38.946809,26.6507216 38.5929007,26.7432749 L37.518407,25.8530741 C36.978492,25.4056695 36.2988814,25.1817752 35.6110758,25.2230593 C33.5101146,25.3480637 22.750312,25.6343643 17.2299527,18.9778285 C16.7237705,18.3675916 15.8225146,18.2861755 15.2166587,18.7961784 C14.6108028,19.3061812 14.5301872,20.2144318 15.0363694,20.8246687 C17.7590046,24.10762 21.7522411,26.3275534 26.9049703,27.4228306 C30.8501804,28.2613783 34.3572456,28.1799621 35.7313322,28.1010423 L37.4076796,29.4899168 C37.8690754,29.8722269 38.5160967,29.9261843 39.0327609,29.6231781 C39.2751795,29.4901088 40.0870531,29.3629921 40.4413425,29.4342312 C41.0193736,29.5500188 41.455041,30.1310687 41.455041,30.786046 L41.455041,31.8360067 C41.455041,32.5021211 41.0439585,33.102373 40.4988978,33.2321779 C40.3725429,33.2623249 40.2469502,33.27327 40.1255503,33.2640531 C38.7568001,33.1638191 37.4831496,34.1667351 37.2310113,35.549657 C36.1912033,41.2535858 31.2576419,45.3935187 25.5000097,45.3935187 C19.7421869,45.3935187 14.8084349,41.2535858 13.7686269,35.5498491 Z M19.5729513,60.8149605 L15.2738329,53.7839874 L17.4761829,51.5650141 L23.3952369,57.5287448 L19.5729513,60.8149605 Z M25.4998191,55.5757181 L20.2428423,50.2790619 L20.2428423,47.2996928 C21.8839323,47.9291315 23.6572853,48.2738059 25.4998191,48.2738059 C27.3423529,48.2738059 29.1157059,47.9291315 30.7567959,47.2998848 L30.7567959,50.2790619 L25.4998191,55.5757181 Z M31.4266869,60.8149605 L27.6044013,57.5287448 L33.5234553,51.5650141 L35.7258053,53.7839874 L31.4266869,60.8149605 Z" id="Shape"></path>
            <path d="M20.5436893,70 L16.4563107,70 C15.6520388,70 15,70.6716 15,71.5 C15,72.3284 15.6520388,73 16.4563107,73 L20.5436893,73 C21.3479612,73 22,72.3284 22,71.5 C22,70.6716 21.3479612,70 20.5436893,70 Z" id="Shape"></path>
        </g>
    </g>
</svg>