<?xml version="1.0" encoding="UTF-8"?>
<svg width="120px" height="120px" viewBox="0 0 120 120" version="1.1" xmlns="http://www.w3.org/2000/svg" xmlns:xlink="http://www.w3.org/1999/xlink">
    <!-- Generator: Sketch 52.2 (67145) - http://www.bohemiancoding.com/sketch -->
    <title>Illustrations/startup</title>
    <desc>Created with Sketch.</desc>
    <g id="Illustrations/startup" stroke="none" stroke-width="1" fill="none" fill-rule="evenodd">
        <path d="M38,10 L104,10 C107.313708,10 110,12.6862915 110,16 L110,85 C110,88.3137085 107.313708,91 104,91 L38,91 C34.6862915,91 32,88.3137085 32,85 L32,16 C32,12.6862915 34.6862915,10 38,10 Z" id="Rectangle" fill="#1FDB84" opacity="0.100000001"></path>
        <g id="icon" transform="translate(10.000000, 28.000000)" fill="#031D5B" fill-rule="nonzero">
            <circle id="Oval" cx="2" cy="80" r="2"></circle>
            <circle id="Oval" cx="43" cy="39" r="2"></circle>
            <path d="M64.9520799,19.0507467 C63.6293292,17.7281494 61.8706328,17 60,17 C58.1293672,17 56.3705069,17.7284771 55.0479201,19.0507467 C52.31736,21.7808155 52.31736,26.2227892 55.0479201,28.9526942 C56.4134459,30.3177286 58.2063952,31 60,31 C61.7931131,31 63.5868818,30.3174009 64.9520799,28.9526942 C67.68264,26.2226253 67.68264,21.7806517 64.9520799,19.0507467 Z M62.6253431,26.6261879 C61.1777087,28.0733112 58.8221274,28.0733112 57.3748207,26.6261879 C55.9271863,25.1790647 55.9271863,22.8242123 57.3748207,21.3769252 C58.0761032,20.6758111 59.0083057,20.2897804 60,20.2897804 C60.9916943,20.2897804 61.9238968,20.6758111 62.6251793,21.3769252 C64.0728137,22.8242123 64.0728137,25.1790647 62.6253431,26.6261879 Z" id="Shape"></path>
            <path d="M19.1534468,66.6895698 C18.3984661,66.3135998 17.4819645,66.6209766 17.105995,67.3758063 L15.2872884,71.0282821 C14.4964141,72.6162687 12.9058443,73.6781711 11.1358068,73.7992358 L9.02052231,73.9440269 C8.66295588,73.9679052 8.42782288,73.7898062 8.31907767,73.6810608 C8.21033245,73.5723154 8.03177738,73.3367258 8.05611197,72.979463 L8.2009028,70.8643275 C8.32211949,69.0944395 9.38402029,67.5037152 10.9718525,66.7128398 L14.6241707,64.8941305 C15.3791515,64.5181604 15.6863757,63.6015054 15.3104062,62.8466756 C14.9345889,62.0918458 14.0179352,61.7844691 13.2629544,62.1604391 L9.61063619,63.9791484 C7.05672065,65.250937 5.34904059,67.8091148 5.15405966,70.655658 L5.00926883,72.7707936 C4.93109395,73.912544 5.35025732,75.0313285 6.15938253,75.8404549 C6.90432526,76.5853988 7.91192951,77 8.95831701,77 C9.04820291,77 9.13869718,76.9969582 9.22903935,76.9907224 L11.3443239,76.8459314 C14.1908629,76.6511023 16.749037,74.9435718 18.0208236,72.3893483 L19.8395303,68.7370246 C20.2154997,67.9820428 19.9082755,67.0655398 19.1534468,66.6895698 Z" id="Shape"></path>
            <path d="M80.8905256,1.07738176 C80.1359989,0.32971076 79.0965428,-0.0612820243 78.0407501,0.00783042088 L76.5435488,0.103846778 C63.1188687,0.965899678 50.5552234,7.48389599 42.0741262,17.9867322 L38.5499055,22.3508046 L29.3272548,22.0783823 C29.3115589,22.077899 29.2957028,22.0777379 29.280167,22.0777379 C21.9658553,22.0777379 15.0892683,24.9427629 9.9171332,30.1450452 L0.471055535,39.646637 C0.0217990689,40.0985261 -0.120905926,40.7743459 0.107165806,41.3707428 C0.335237537,41.9673008 0.891002221,42.3729538 1.52556697,42.4054963 L21.5209232,43.4387998 L20.7056949,44.4484215 C20.2948775,44.9573404 20.2298514,45.6652194 20.5413679,46.2409953 C20.8546462,46.8203155 21.1829798,47.3904529 21.5254078,47.9514075 L16.7836299,53.6136339 C16.378258,54.0977432 16.2909693,54.7753351 16.5598826,55.3475669 C17.5956549,57.5490157 18.9703317,59.5270171 20.6462745,61.2266355 C22.3628987,62.9678181 24.3702182,64.3916311 26.6121762,65.458927 C26.8312788,65.5633206 27.0662375,65.6143897 27.2997548,65.6143897 C27.6618827,65.6143897 28.0209676,65.4913084 28.3131044,65.2530396 C29.3346223,64.4195016 30.5122989,63.4308231 31.6513762,62.4748482 C32.4632411,61.7933898 33.2938451,61.0963046 34.0701538,60.4535105 C34.5335046,60.7339878 35.0026213,61.0059268 35.4787851,61.2664275 C35.7196698,61.3982084 35.9837782,61.4631322 36.2469255,61.4631322 C36.5970413,61.4631322 36.9449147,61.3484281 37.2328873,61.1235307 L38.3288809,60.268083 L39.3606492,80.4653493 C39.3933224,81.1036325 39.796452,81.6626539 40.3893745,81.8920621 C40.5770852,81.9645577 40.7721634,82 40.9659603,82 C41.3847858,82 41.7960837,81.8351934 42.1032759,81.5260401 L51.5495137,72.0244482 C56.7216488,66.8220049 59.5698227,59.9052829 59.5698227,52.547949 L59.5698227,43.6881846 L63.296329,40.7795011 C74.4643162,32.0623114 81.265947,18.9174143 81.9572094,4.71504845 L81.9954883,3.92790764 C82.0477013,2.86399485 81.6447319,1.82521386 80.8905256,1.07738176 Z M5.30220421,39.36181 L12.1911237,32.4325221 C16.7501559,27.8467744 22.8103934,25.3187733 29.2569434,25.3124903 L35.997392,25.5116115 L24.0316342,40.3297064 L5.30220421,39.36181 Z M29.5910428,59.9911499 C28.75163,60.6954846 27.8910756,61.4178627 27.0925042,62.0785391 C25.5478948,61.2371071 24.1506351,60.1872101 22.9295544,58.9486636 C21.7469128,57.7492646 20.74029,56.3836091 19.9285853,54.8792455 L23.4002727,50.7336265 C24.4499793,52.1501899 25.5989867,53.4920024 26.8402479,54.7490756 C26.8412089,54.7500422 26.8421698,54.7508478 26.8431308,54.7518144 C26.8434511,54.7521366 26.8437715,54.7526199 26.8440918,54.7529421 C26.8445723,54.7534254 26.8450528,54.7537476 26.8455333,54.7542309 C28.2218116,56.1474347 29.7021958,57.4259344 31.2725914,58.5821582 C30.718108,59.0451632 30.1500108,59.522023 29.5910428,59.9911499 Z M56.3543957,52.547949 C56.3543957,59.0411357 53.8406416,65.145585 49.2758435,69.7371324 L42.3869241,76.6664202 L41.4256273,57.8510806 L56.3542355,46.1986257 L56.3542355,52.547949 L56.3543957,52.547949 Z M78.7456262,4.55700811 C78.1003306,17.8151594 71.7508392,30.0862432 61.3252063,38.2239517 L36.1059823,57.9087549 C34.0145774,56.6795522 32.0652367,55.2281908 30.2811841,53.5838301 L38.7835829,45.0316081 C39.4114208,44.4000911 39.4114208,43.3758092 38.7835829,42.7441311 C38.1555848,42.1124531 37.1374303,42.1124531 36.5094322,42.7441311 L28.0150415,51.2882981 C26.4532947,49.5492099 25.0701294,47.6569144 23.8924528,45.6329991 L44.5704226,20.0261132 C52.4875868,10.221651 64.2159834,4.13685599 76.7482368,3.33231625 L78.245438,3.23629989 C78.4416374,3.22405619 78.5729708,3.32200576 78.6335123,3.38193544 C78.6938937,3.44170401 78.7936751,3.57171273 78.7840653,3.7700284 L78.7456262,4.55700811 Z" id="Shape"></path>
        </g>
    </g>
</svg>